{
	"asset":{
		"copyright":"Rashen",
		"generator":"Khronos glTF Blender I/O v4.0.44",
		"version":"2.0"
	},
	"scene":0,
	"scenes":[
		{
			"name":"Scene",
			"nodes":[
				0,
				1,
				2,
				3,
				4,
				5,
				6,
				7,
				8,
				9,
				10,
				11,
				12,
				13,
				14,
				15,
				16,
				17,
				18,
				19,
				20,
				21,
				22,
				23,
				24,
				25,
				26,
				27,
				28,
				29,
				30,
				31,
				32,
				33,
				34,
				35,
				36,
				37,
				38,
				39,
				40
			]
		}
	],
	"nodes":[
		{
			"mesh":0,
			"name":"MESH.001",
			"rotation":[
				0.37642592191696167,
				0.5805224776268005,
				-0.63458651304245,
				0.3443794250488281
			],
			"scale":[
				-1,
				-0.9999999403953552,
				-1
			],
			"translation":[
				-0.012266366742551327,
				0.20417258143424988,
				-0.03484027460217476
			]
		},
		{
			"mesh":1,
			"name":"MESH.002",
			"rotation":[
				0.37642592191696167,
				0.5805224776268005,
				-0.63458651304245,
				0.3443794250488281
			],
			"scale":[
				-1,
				-0.9999999403953552,
				-1
			],
			"translation":[
				-0.01814640685915947,
				0.19417794048786163,
				-0.04440440237522125
			]
		},
		{
			"mesh":2,
			"name":"MESH.005",
			"rotation":[
				0.37642592191696167,
				0.5805224776268005,
				-0.63458651304245,
				0.3443794250488281
			],
			"scale":[
				-1,
				-0.9999999403953552,
				-1
			],
			"translation":[
				-0.000536714680492878,
				0.08227834105491638,
				-0.028710156679153442
			]
		},
		{
			"mesh":3,
			"name":"MESH.003",
			"rotation":[
				0.37642592191696167,
				0.5805224776268005,
				-0.63458651304245,
				0.3443794250488281
			],
			"scale":[
				-1,
				-0.9999999403953552,
				-1
			],
			"translation":[
				-0.012967492453753948,
				0.21473218500614166,
				-0.03762779012322426
			]
		},
		{
			"mesh":4,
			"name":"MESH.004",
			"rotation":[
				0.37642592191696167,
				0.5805224776268005,
				-0.63458651304245,
				0.3443794250488281
			],
			"scale":[
				-1,
				-0.9999999403953552,
				-1
			],
			"translation":[
				0.0034706834703683853,
				0.10026267170906067,
				-0.016453519463539124
			]
		},
		{
			"mesh":5,
			"name":"MESH.006",
			"rotation":[
				0.37642592191696167,
				0.5805224776268005,
				-0.63458651304245,
				0.3443794250488281
			],
			"scale":[
				-1,
				-0.9999999403953552,
				-1
			],
			"translation":[
				-0.021830689162015915,
				0.20233426988124847,
				-0.032869454473257065
			]
		},
		{
			"mesh":6,
			"name":"MESH.007",
			"rotation":[
				0.37642592191696167,
				0.5805224776268005,
				-0.63458651304245,
				0.3443794250488281
			],
			"scale":[
				-1,
				-0.9999999403953552,
				-1
			],
			"translation":[
				-0.012924143113195896,
				0.20418526232242584,
				-0.03248381242156029
			]
		},
		{
			"mesh":7,
			"name":"MESH.008",
			"rotation":[
				0.37642592191696167,
				0.5805224776268005,
				-0.63458651304245,
				0.3443794250488281
			],
			"scale":[
				-1,
				-0.9999999403953552,
				-1
			],
			"translation":[
				-0.0351567305624485,
				0.2037716656923294,
				-0.02887796238064766
			]
		},
		{
			"mesh":8,
			"name":"MESH.009",
			"rotation":[
				0.37642592191696167,
				0.5805224776268005,
				-0.63458651304245,
				0.3443794250488281
			],
			"scale":[
				-1,
				-0.9999999403953552,
				-1
			],
			"translation":[
				0.010323815979063511,
				0.203744038939476,
				-0.02835690975189209
			]
		},
		{
			"mesh":9,
			"name":"MESH.010",
			"rotation":[
				0.37642592191696167,
				0.5805224776268005,
				-0.63458651304245,
				0.3443794250488281
			],
			"scale":[
				-1,
				-0.9999999403953552,
				-1
			],
			"translation":[
				-0.01247913297265768,
				0.20467117428779602,
				-0.035302989184856415
			]
		},
		{
			"mesh":10,
			"name":"MESH.011",
			"rotation":[
				0.37642592191696167,
				0.5805224776268005,
				-0.63458651304245,
				0.3443794250488281
			],
			"scale":[
				-1,
				-0.9999999403953552,
				-1
			],
			"translation":[
				-0.019176598638296127,
				0.19237223267555237,
				-0.04438808187842369
			]
		},
		{
			"mesh":11,
			"name":"MESH.012",
			"rotation":[
				0.37642592191696167,
				0.5805224776268005,
				-0.63458651304245,
				0.3443794250488281
			],
			"scale":[
				-1,
				-0.9999999403953552,
				-1
			],
			"translation":[
				-0.012971251271665096,
				0.21026605367660522,
				-0.03760407119989395
			]
		},
		{
			"mesh":12,
			"name":"MESH.013",
			"rotation":[
				0.37642592191696167,
				0.5805224776268005,
				-0.63458651304245,
				0.3443794250488281
			],
			"scale":[
				-1,
				-0.9999999403953552,
				-1
			],
			"translation":[
				-0.01304894220083952,
				0.2067960947751999,
				-0.03751547634601593
			]
		},
		{
			"mesh":13,
			"name":"MESH.014",
			"rotation":[
				0.37642592191696167,
				0.5805224776268005,
				-0.63458651304245,
				0.3443794250488281
			],
			"scale":[
				-1,
				-0.9999999403953552,
				-1
			],
			"translation":[
				-0.01638302579522133,
				0.19741280376911163,
				-0.045523837208747864
			]
		},
		{
			"mesh":14,
			"name":"MESH.015",
			"rotation":[
				0.37642592191696167,
				0.5805224776268005,
				-0.63458651304245,
				0.3443794250488281
			],
			"scale":[
				-1,
				-0.9999999403953552,
				-1
			],
			"translation":[
				-0.002907360903918743,
				0.2051585167646408,
				-0.03265656903386116
			]
		},
		{
			"mesh":15,
			"name":"MESH.016",
			"rotation":[
				0.37642592191696167,
				0.5805224776268005,
				-0.63458651304245,
				0.3443794250488281
			],
			"scale":[
				-1,
				-0.9999999403953552,
				-1
			],
			"translation":[
				-0.004711073823273182,
				0.08938205987215042,
				-0.005924243479967117
			]
		},
		{
			"mesh":16,
			"name":"MESH.017",
			"rotation":[
				0.37642592191696167,
				0.5805224776268005,
				-0.63458651304245,
				0.3443794250488281
			],
			"scale":[
				-1,
				-0.9999999403953552,
				-1
			],
			"translation":[
				-0.009260942228138447,
				0.20345920324325562,
				-0.060087498277425766
			]
		},
		{
			"mesh":17,
			"name":"MESH.018",
			"rotation":[
				0.37642592191696167,
				0.5805224776268005,
				-0.63458651304245,
				0.3443794250488281
			],
			"scale":[
				-1,
				-0.9999999403953552,
				-1
			],
			"translation":[
				-0.0009964881464838982,
				0.0028100493364036083,
				-0.0071948617696762085
			]
		},
		{
			"mesh":18,
			"name":"MESH.019",
			"rotation":[
				0.37642592191696167,
				0.5805224776268005,
				-0.63458651304245,
				0.3443794250488281
			],
			"scale":[
				-1,
				-0.9999999403953552,
				-1
			],
			"translation":[
				0.024971943348646164,
				0.12462104111909866,
				-0.040262527763843536
			]
		},
		{
			"mesh":19,
			"name":"MESH.020",
			"rotation":[
				0.37642592191696167,
				0.5805224776268005,
				-0.63458651304245,
				0.3443794250488281
			],
			"scale":[
				-1,
				-0.9999999403953552,
				-1
			],
			"translation":[
				-0.00010167434811592102,
				0.10643187165260315,
				-0.035488300025463104
			]
		},
		{
			"mesh":20,
			"name":"MESH.021",
			"rotation":[
				0.37642592191696167,
				0.5805224776268005,
				-0.63458651304245,
				0.3443794250488281
			],
			"scale":[
				-1,
				-0.9999999403953552,
				-1
			],
			"translation":[
				-0.018468067049980164,
				0.08943331986665726,
				-0.021635087206959724
			]
		},
		{
			"mesh":21,
			"name":"MESH.022",
			"rotation":[
				0.37642592191696167,
				0.5805224776268005,
				-0.63458651304245,
				0.3443794250488281
			],
			"scale":[
				-1,
				-0.9999999403953552,
				-1
			],
			"translation":[
				-0.0008676368743181229,
				0.0040795267559587955,
				-0.007773708552122116
			]
		},
		{
			"mesh":22,
			"name":"MESH.023",
			"rotation":[
				0.37642592191696167,
				0.5805224776268005,
				-0.63458651304245,
				0.3443794250488281
			],
			"scale":[
				-1,
				-0.9999999403953552,
				-1
			],
			"translation":[
				0.0008203508332371712,
				0.05124572291970253,
				-0.03126626834273338
			]
		},
		{
			"mesh":23,
			"name":"MESH.024",
			"rotation":[
				0.37642592191696167,
				0.5805224776268005,
				-0.63458651304245,
				0.3443794250488281
			],
			"scale":[
				-1,
				-0.9999999403953552,
				-1
			],
			"translation":[
				-0.0004600612446665764,
				0.05496978014707565,
				-0.0313120074570179
			]
		},
		{
			"mesh":24,
			"name":"MESH.025",
			"rotation":[
				0.37642592191696167,
				0.5805224776268005,
				-0.63458651304245,
				0.3443794250488281
			],
			"scale":[
				-1,
				-0.9999999403953552,
				-1
			],
			"translation":[
				0.007090884260833263,
				0.10026189684867859,
				-0.01583830825984478
			]
		},
		{
			"mesh":25,
			"name":"MESH.026",
			"rotation":[
				0.37642592191696167,
				0.5805224776268005,
				-0.63458651304245,
				0.3443794250488281
			],
			"scale":[
				-1,
				-0.9999999403953552,
				-1
			],
			"translation":[
				0.008375974372029305,
				0.0866728127002716,
				-0.009918123483657837
			]
		},
		{
			"mesh":26,
			"name":"MESH.027",
			"rotation":[
				0.37642592191696167,
				0.5805224776268005,
				-0.63458651304245,
				0.3443794250488281
			],
			"scale":[
				-1,
				-0.9999999403953552,
				-1
			],
			"translation":[
				-0.0011408310383558273,
				0.08222541958093643,
				-0.013619761914014816
			]
		},
		{
			"mesh":27,
			"name":"MESH.028",
			"rotation":[
				0.37642592191696167,
				0.5805224776268005,
				-0.63458651304245,
				0.3443794250488281
			],
			"scale":[
				-1,
				-0.9999999403953552,
				-1
			],
			"translation":[
				-3.3877789974212646e-05,
				0.08921848982572556,
				-0.047586433589458466
			]
		},
		{
			"mesh":28,
			"name":"MESH.029",
			"rotation":[
				0.37642592191696167,
				0.5805224776268005,
				-0.63458651304245,
				0.3443794250488281
			],
			"scale":[
				-1,
				-0.9999999403953552,
				-1
			],
			"translation":[
				8.322298526763916e-06,
				0.08795677870512009,
				-0.04884845018386841
			]
		},
		{
			"mesh":29,
			"name":"MESH.030",
			"rotation":[
				0.37642592191696167,
				0.5805224776268005,
				-0.63458651304245,
				0.3443794250488281
			],
			"scale":[
				-1,
				-0.9999999403953552,
				-1
			],
			"translation":[
				0.010400954633951187,
				0.12246893346309662,
				-0.03769031539559364
			]
		},
		{
			"mesh":30,
			"name":"MESH.031",
			"rotation":[
				0.37642592191696167,
				0.5805224776268005,
				-0.63458651304245,
				0.3443794250488281
			],
			"scale":[
				-1,
				-0.9999999403953552,
				-1
			],
			"translation":[
				0.00935760885477066,
				0.09440819174051285,
				-0.04067583382129669
			]
		},
		{
			"mesh":31,
			"name":"MESH.032",
			"rotation":[
				0.37642592191696167,
				0.5805224776268005,
				-0.63458651304245,
				0.3443794250488281
			],
			"scale":[
				-1,
				-0.9999999403953552,
				-1
			],
			"translation":[
				0.009931499138474464,
				0.09449218958616257,
				-0.04064684733748436
			]
		},
		{
			"mesh":32,
			"name":"MESH.033",
			"rotation":[
				0.37642592191696167,
				0.5805224776268005,
				-0.63458651304245,
				0.3443794250488281
			],
			"scale":[
				-1,
				-0.9999999403953552,
				-1
			],
			"translation":[
				-0.004802134819328785,
				0.08784805983304977,
				-0.00948508270084858
			]
		},
		{
			"mesh":33,
			"name":"MESH.034",
			"rotation":[
				0.37642592191696167,
				0.5805224776268005,
				-0.63458651304245,
				0.3443794250488281
			],
			"scale":[
				-1,
				-0.9999999403953552,
				-1
			],
			"translation":[
				0.03599502891302109,
				0.13334396481513977,
				-0.04153193160891533
			]
		},
		{
			"mesh":34,
			"name":"MESH.035",
			"rotation":[
				0.37642592191696167,
				0.5805224776268005,
				-0.63458651304245,
				0.3443794250488281
			],
			"scale":[
				-1,
				-0.9999999403953552,
				-1
			],
			"translation":[
				0.03667812794446945,
				0.13496066629886627,
				-0.04347522556781769
			]
		},
		{
			"mesh":35,
			"name":"MESH.036",
			"rotation":[
				0.37642592191696167,
				0.5805224776268005,
				-0.63458651304245,
				0.3443794250488281
			],
			"scale":[
				-1,
				-0.9999999403953552,
				-1
			],
			"translation":[
				0.032791607081890106,
				0.1341530829668045,
				-0.04932941868901253
			]
		},
		{
			"mesh":36,
			"name":"MESH.037",
			"rotation":[
				0.37642592191696167,
				0.5805224776268005,
				-0.63458651304245,
				0.3443794250488281
			],
			"scale":[
				-1,
				-0.9999999403953552,
				-1
			],
			"translation":[
				0.022314663976430893,
				0.18554645776748657,
				-0.057277172803878784
			]
		},
		{
			"mesh":37,
			"name":"MESH.038",
			"rotation":[
				0.37642592191696167,
				0.5805224776268005,
				-0.63458651304245,
				0.3443794250488281
			],
			"scale":[
				-1,
				-0.9999999403953552,
				-1
			],
			"translation":[
				0.0285445898771286,
				0.18179117143154144,
				-0.05584441125392914
			]
		},
		{
			"mesh":38,
			"name":"MESH.039",
			"rotation":[
				0.37642592191696167,
				0.5805224776268005,
				-0.63458651304245,
				0.3443794250488281
			],
			"scale":[
				-1,
				-0.9999999403953552,
				-1
			],
			"translation":[
				0.04215295612812042,
				0.14522132277488708,
				-0.04726330190896988
			]
		},
		{
			"mesh":39,
			"name":"MESH.040",
			"rotation":[
				0.37642592191696167,
				0.5805224776268005,
				-0.63458651304245,
				0.3443794250488281
			],
			"scale":[
				-1,
				-0.9999999403953552,
				-1
			],
			"translation":[
				0.04924860969185829,
				0.15263161063194275,
				-0.05362619832158089
			]
		},
		{
			"mesh":40,
			"name":"MESH",
			"rotation":[
				0.37642592191696167,
				0.5805224776268005,
				-0.63458651304245,
				0.3443794250488281
			],
			"scale":[
				-1,
				-0.9999999403953552,
				-1
			],
			"translation":[
				0.03841120004653931,
				0.13419677317142487,
				-0.036097727715969086
			]
		}
	],
	"materials":[
		{
			"doubleSided":true,
			"name":"mat_6",
			"pbrMetallicRoughness":{
				"baseColorTexture":{
					"index":0,
					"texCoord":3
				},
				"metallicFactor":0,
				"roughnessFactor":0.5
			}
		},
		{
			"doubleSided":true,
			"name":"mini display",
			"pbrMetallicRoughness":{
				"baseColorTexture":{
					"index":1
				},
				"metallicFactor":0,
				"roughnessFactor":0.09545454382896423
			}
		},
		{
			"doubleSided":true,
			"name":"mini display",
			"pbrMetallicRoughness":{
				"baseColorTexture":{
					"index":1,
					"texCoord":1
				},
				"metallicFactor":0,
				"roughnessFactor":0.09545454382896423
			}
		},
		{
			"doubleSided":true,
			"name":"Main material",
			"normalTexture":{
				"index":2,
				"texCoord":4
			},
			"pbrMetallicRoughness":{
				"baseColorTexture":{
					"index":3,
					"texCoord":4
				},
				"metallicRoughnessTexture":{
					"index":4,
					"texCoord":4
				}
			}
		},
		{
			"doubleSided":true,
			"name":"Main material",
			"normalTexture":{
				"index":2
			},
			"pbrMetallicRoughness":{
				"baseColorTexture":{
					"index":3
				},
				"metallicRoughnessTexture":{
					"index":4
				}
			}
		}
	],
	"meshes":[
		{
			"name":"mesh_8_7.nr",
			"primitives":[
				{
					"attributes":{
						"POSITION":0,
						"NORMAL":1,
						"TEXCOORD_0":2,
						"TEXCOORD_1":3,
						"TEXCOORD_2":4,
						"TEXCOORD_3":5
					},
					"indices":6,
					"material":0
				}
			]
		},
		{
			"name":"mesh_8_8.nr",
			"primitives":[
				{
					"attributes":{
						"POSITION":7,
						"NORMAL":8,
						"TEXCOORD_0":9,
						"TEXCOORD_1":10,
						"TEXCOORD_2":11,
						"TEXCOORD_3":12
					},
					"indices":13,
					"material":0
				}
			]
		},
		{
			"name":"mesh_8_9.nr",
			"primitives":[
				{
					"attributes":{
						"POSITION":14,
						"NORMAL":15,
						"TEXCOORD_0":16,
						"TEXCOORD_1":17,
						"TEXCOORD_2":18,
						"TEXCOORD_3":19
					},
					"indices":20,
					"material":1
				}
			]
		},
		{
			"name":"mesh_8_10.nr",
			"primitives":[
				{
					"attributes":{
						"POSITION":21,
						"NORMAL":22,
						"TEXCOORD_0":23,
						"TEXCOORD_1":24,
						"TEXCOORD_2":25,
						"TEXCOORD_3":26
					},
					"indices":27,
					"material":0
				}
			]
		},
		{
			"name":"mesh_8_11.nr",
			"primitives":[
				{
					"attributes":{
						"POSITION":28,
						"NORMAL":29,
						"TEXCOORD_0":30,
						"TEXCOORD_1":31,
						"TEXCOORD_2":32,
						"TEXCOORD_3":33
					},
					"indices":34,
					"material":2
				}
			]
		},
		{
			"name":"mesh_9_12.nr",
			"primitives":[
				{
					"attributes":{
						"POSITION":35,
						"NORMAL":36,
						"TEXCOORD_0":37,
						"TEXCOORD_1":38,
						"TEXCOORD_2":39,
						"TEXCOORD_3":40,
						"TEXCOORD_4":41,
						"TEXCOORD_5":42
					},
					"indices":43,
					"material":3
				}
			]
		},
		{
			"name":"mesh_9_13.nr",
			"primitives":[
				{
					"attributes":{
						"POSITION":44,
						"NORMAL":45,
						"TEXCOORD_0":46,
						"TEXCOORD_1":47,
						"TEXCOORD_2":48,
						"TEXCOORD_3":49,
						"TEXCOORD_4":50,
						"TEXCOORD_5":51
					},
					"indices":52,
					"material":3
				}
			]
		},
		{
			"name":"mesh_9_14.nr",
			"primitives":[
				{
					"attributes":{
						"POSITION":53,
						"NORMAL":54,
						"TEXCOORD_0":55
					},
					"indices":56,
					"material":4
				}
			]
		},
		{
			"name":"mesh_9_15.nr",
			"primitives":[
				{
					"attributes":{
						"POSITION":57,
						"NORMAL":58,
						"TEXCOORD_0":59,
						"TEXCOORD_1":60,
						"TEXCOORD_2":61,
						"TEXCOORD_3":62,
						"TEXCOORD_4":63,
						"TEXCOORD_5":64
					},
					"indices":56,
					"material":3
				}
			]
		},
		{
			"name":"mesh_9_16.nr",
			"primitives":[
				{
					"attributes":{
						"POSITION":65,
						"NORMAL":66,
						"TEXCOORD_0":67,
						"TEXCOORD_1":68,
						"TEXCOORD_2":69,
						"TEXCOORD_3":70,
						"TEXCOORD_4":71,
						"TEXCOORD_5":72
					},
					"indices":73,
					"material":3
				}
			]
		},
		{
			"name":"mesh_9_17.nr",
			"primitives":[
				{
					"attributes":{
						"POSITION":74,
						"NORMAL":75,
						"TEXCOORD_0":76,
						"TEXCOORD_1":77,
						"TEXCOORD_2":78,
						"TEXCOORD_3":79,
						"TEXCOORD_4":80,
						"TEXCOORD_5":81
					},
					"indices":82,
					"material":3
				}
			]
		},
		{
			"name":"mesh_9_18.nr",
			"primitives":[
				{
					"attributes":{
						"POSITION":83,
						"NORMAL":84,
						"TEXCOORD_0":85,
						"TEXCOORD_1":86,
						"TEXCOORD_2":87,
						"TEXCOORD_3":88,
						"TEXCOORD_4":89,
						"TEXCOORD_5":90
					},
					"indices":91,
					"material":3
				}
			]
		},
		{
			"name":"mesh_9_19.nr",
			"primitives":[
				{
					"attributes":{
						"POSITION":92,
						"NORMAL":93,
						"TEXCOORD_0":94,
						"TEXCOORD_1":95,
						"TEXCOORD_2":96,
						"TEXCOORD_3":97,
						"TEXCOORD_4":98,
						"TEXCOORD_5":99
					},
					"indices":100,
					"material":3
				}
			]
		},
		{
			"name":"mesh_9_20.nr",
			"primitives":[
				{
					"attributes":{
						"POSITION":101,
						"NORMAL":102,
						"TEXCOORD_0":103,
						"TEXCOORD_1":104,
						"TEXCOORD_2":105,
						"TEXCOORD_3":106,
						"TEXCOORD_4":107,
						"TEXCOORD_5":108
					},
					"indices":109,
					"material":3
				}
			]
		},
		{
			"name":"mesh_9_21.nr",
			"primitives":[
				{
					"attributes":{
						"POSITION":110,
						"NORMAL":111,
						"TEXCOORD_0":112,
						"TEXCOORD_1":113,
						"TEXCOORD_2":114,
						"TEXCOORD_3":115,
						"TEXCOORD_4":116,
						"TEXCOORD_5":117
					},
					"indices":43,
					"material":3
				}
			]
		},
		{
			"name":"mesh_9_22.nr",
			"primitives":[
				{
					"attributes":{
						"POSITION":118,
						"NORMAL":119,
						"TEXCOORD_0":120,
						"TEXCOORD_1":121,
						"TEXCOORD_2":122,
						"TEXCOORD_3":123,
						"TEXCOORD_4":124,
						"TEXCOORD_5":125
					},
					"indices":126,
					"material":3
				}
			]
		},
		{
			"name":"mesh_9_23.nr",
			"primitives":[
				{
					"attributes":{
						"POSITION":127,
						"NORMAL":128,
						"TEXCOORD_0":129,
						"TEXCOORD_1":130,
						"TEXCOORD_2":131,
						"TEXCOORD_3":132,
						"TEXCOORD_4":133,
						"TEXCOORD_5":134
					},
					"indices":135,
					"material":3
				}
			]
		},
		{
			"name":"mesh_9_24.nr",
			"primitives":[
				{
					"attributes":{
						"POSITION":136,
						"NORMAL":137,
						"TEXCOORD_0":138,
						"TEXCOORD_1":139,
						"TEXCOORD_2":140,
						"TEXCOORD_3":141,
						"TEXCOORD_4":142,
						"TEXCOORD_5":143
					},
					"indices":144,
					"material":3
				}
			]
		},
		{
			"name":"mesh_9_25.nr",
			"primitives":[
				{
					"attributes":{
						"POSITION":145,
						"NORMAL":146,
						"TEXCOORD_0":147,
						"TEXCOORD_1":148,
						"TEXCOORD_2":149,
						"TEXCOORD_3":150,
						"TEXCOORD_4":151,
						"TEXCOORD_5":152
					},
					"indices":153,
					"material":3
				}
			]
		},
		{
			"name":"mesh_9_26.nr",
			"primitives":[
				{
					"attributes":{
						"POSITION":154,
						"NORMAL":155,
						"TEXCOORD_0":156,
						"TEXCOORD_1":157,
						"TEXCOORD_2":158,
						"TEXCOORD_3":159,
						"TEXCOORD_4":160,
						"TEXCOORD_5":161
					},
					"indices":162,
					"material":3
				}
			]
		},
		{
			"name":"mesh_9_27.nr",
			"primitives":[
				{
					"attributes":{
						"POSITION":163,
						"NORMAL":164,
						"TEXCOORD_0":165,
						"TEXCOORD_1":166,
						"TEXCOORD_2":167,
						"TEXCOORD_3":168,
						"TEXCOORD_4":169,
						"TEXCOORD_5":170
					},
					"indices":171,
					"material":3
				}
			]
		},
		{
			"name":"mesh_9_28.nr",
			"primitives":[
				{
					"attributes":{
						"POSITION":172,
						"NORMAL":173,
						"TEXCOORD_0":174,
						"TEXCOORD_1":175,
						"TEXCOORD_2":176,
						"TEXCOORD_3":177,
						"TEXCOORD_4":178,
						"TEXCOORD_5":179
					},
					"indices":180,
					"material":3
				}
			]
		},
		{
			"name":"mesh_9_29.nr",
			"primitives":[
				{
					"attributes":{
						"POSITION":181,
						"NORMAL":182,
						"TEXCOORD_0":183,
						"TEXCOORD_1":184,
						"TEXCOORD_2":185,
						"TEXCOORD_3":186,
						"TEXCOORD_4":187,
						"TEXCOORD_5":188
					},
					"indices":189,
					"material":3
				}
			]
		},
		{
			"name":"mesh_9_30.nr",
			"primitives":[
				{
					"attributes":{
						"POSITION":190,
						"NORMAL":191,
						"TEXCOORD_0":192,
						"TEXCOORD_1":193,
						"TEXCOORD_2":194,
						"TEXCOORD_3":195,
						"TEXCOORD_4":196,
						"TEXCOORD_5":197
					},
					"indices":198,
					"material":3
				}
			]
		},
		{
			"name":"mesh_9_31.nr",
			"primitives":[
				{
					"attributes":{
						"POSITION":199,
						"NORMAL":200,
						"TEXCOORD_0":201,
						"TEXCOORD_1":202,
						"TEXCOORD_2":203,
						"TEXCOORD_3":204,
						"TEXCOORD_4":205,
						"TEXCOORD_5":206
					},
					"indices":207,
					"material":3
				}
			]
		},
		{
			"name":"mesh_9_32.nr",
			"primitives":[
				{
					"attributes":{
						"POSITION":208,
						"NORMAL":209,
						"TEXCOORD_0":210,
						"TEXCOORD_1":211,
						"TEXCOORD_2":212,
						"TEXCOORD_3":213,
						"TEXCOORD_4":214,
						"TEXCOORD_5":215
					},
					"indices":216,
					"material":3
				}
			]
		},
		{
			"name":"mesh_9_33.nr",
			"primitives":[
				{
					"attributes":{
						"POSITION":217,
						"NORMAL":218,
						"TEXCOORD_0":219,
						"TEXCOORD_1":220,
						"TEXCOORD_2":221,
						"TEXCOORD_3":222,
						"TEXCOORD_4":223,
						"TEXCOORD_5":224
					},
					"indices":225,
					"material":3
				}
			]
		},
		{
			"name":"mesh_9_34.nr",
			"primitives":[
				{
					"attributes":{
						"POSITION":226,
						"NORMAL":227,
						"TEXCOORD_0":228,
						"TEXCOORD_1":229,
						"TEXCOORD_2":230,
						"TEXCOORD_3":231,
						"TEXCOORD_4":232,
						"TEXCOORD_5":233
					},
					"indices":234,
					"material":3
				}
			]
		},
		{
			"name":"mesh_9_35.nr",
			"primitives":[
				{
					"attributes":{
						"POSITION":235,
						"NORMAL":236,
						"TEXCOORD_0":237,
						"TEXCOORD_1":238,
						"TEXCOORD_2":239,
						"TEXCOORD_3":240,
						"TEXCOORD_4":241,
						"TEXCOORD_5":242
					},
					"indices":243,
					"material":3
				}
			]
		},
		{
			"name":"mesh_9_36.nr",
			"primitives":[
				{
					"attributes":{
						"POSITION":244,
						"NORMAL":245,
						"TEXCOORD_0":246,
						"TEXCOORD_1":247,
						"TEXCOORD_2":248,
						"TEXCOORD_3":249,
						"TEXCOORD_4":250,
						"TEXCOORD_5":251
					},
					"indices":252,
					"material":3
				}
			]
		},
		{
			"name":"mesh_9_37.nr",
			"primitives":[
				{
					"attributes":{
						"POSITION":253,
						"NORMAL":254,
						"TEXCOORD_0":255,
						"TEXCOORD_1":256,
						"TEXCOORD_2":257,
						"TEXCOORD_3":258,
						"TEXCOORD_4":259,
						"TEXCOORD_5":260
					},
					"indices":261,
					"material":3
				}
			]
		},
		{
			"name":"mesh_9_38.nr",
			"primitives":[
				{
					"attributes":{
						"POSITION":262,
						"NORMAL":263,
						"TEXCOORD_0":264,
						"TEXCOORD_1":265,
						"TEXCOORD_2":266,
						"TEXCOORD_3":267,
						"TEXCOORD_4":268,
						"TEXCOORD_5":269
					},
					"indices":270,
					"material":3
				}
			]
		},
		{
			"name":"mesh_9_39.nr",
			"primitives":[
				{
					"attributes":{
						"POSITION":271,
						"NORMAL":272,
						"TEXCOORD_0":273,
						"TEXCOORD_1":274,
						"TEXCOORD_2":275,
						"TEXCOORD_3":276,
						"TEXCOORD_4":277,
						"TEXCOORD_5":278
					},
					"indices":279,
					"material":3
				}
			]
		},
		{
			"name":"mesh_9_40.nr",
			"primitives":[
				{
					"attributes":{
						"POSITION":280,
						"NORMAL":281,
						"TEXCOORD_0":282,
						"TEXCOORD_1":283,
						"TEXCOORD_2":284,
						"TEXCOORD_3":285,
						"TEXCOORD_4":286,
						"TEXCOORD_5":287
					},
					"indices":288,
					"material":3
				}
			]
		},
		{
			"name":"mesh_9_41.nr",
			"primitives":[
				{
					"attributes":{
						"POSITION":289,
						"NORMAL":290,
						"TEXCOORD_0":291,
						"TEXCOORD_1":292,
						"TEXCOORD_2":293,
						"TEXCOORD_3":294,
						"TEXCOORD_4":295,
						"TEXCOORD_5":296
					},
					"indices":297,
					"material":3
				}
			]
		},
		{
			"name":"mesh_9_42.nr",
			"primitives":[
				{
					"attributes":{
						"POSITION":298,
						"NORMAL":299,
						"TEXCOORD_0":300,
						"TEXCOORD_1":301,
						"TEXCOORD_2":302,
						"TEXCOORD_3":303,
						"TEXCOORD_4":304,
						"TEXCOORD_5":305
					},
					"indices":306,
					"material":3
				}
			]
		},
		{
			"name":"mesh_9_43.nr",
			"primitives":[
				{
					"attributes":{
						"POSITION":307,
						"NORMAL":308,
						"TEXCOORD_0":309,
						"TEXCOORD_1":310,
						"TEXCOORD_2":311,
						"TEXCOORD_3":312,
						"TEXCOORD_4":313,
						"TEXCOORD_5":314
					},
					"indices":315,
					"material":3
				}
			]
		},
		{
			"name":"mesh_9_44.nr",
			"primitives":[
				{
					"attributes":{
						"POSITION":316,
						"NORMAL":317,
						"TEXCOORD_0":318,
						"TEXCOORD_1":319,
						"TEXCOORD_2":320,
						"TEXCOORD_3":321,
						"TEXCOORD_4":322,
						"TEXCOORD_5":323
					},
					"indices":324,
					"material":3
				}
			]
		},
		{
			"name":"mesh_9_45.nr",
			"primitives":[
				{
					"attributes":{
						"POSITION":325,
						"NORMAL":326,
						"TEXCOORD_0":327,
						"TEXCOORD_1":328,
						"TEXCOORD_2":329,
						"TEXCOORD_3":330,
						"TEXCOORD_4":331,
						"TEXCOORD_5":332
					},
					"indices":333,
					"material":3
				}
			]
		},
		{
			"name":"mesh_9_46.nr",
			"primitives":[
				{
					"attributes":{
						"POSITION":334,
						"NORMAL":335,
						"TEXCOORD_0":336,
						"TEXCOORD_1":337,
						"TEXCOORD_2":338,
						"TEXCOORD_3":339,
						"TEXCOORD_4":340,
						"TEXCOORD_5":341
					},
					"indices":342,
					"material":3
				}
			]
		},
		{
			"name":"mesh_9_47.nr",
			"primitives":[
				{
					"attributes":{
						"POSITION":343,
						"NORMAL":344,
						"TEXCOORD_0":345,
						"TEXCOORD_1":346,
						"TEXCOORD_2":347,
						"TEXCOORD_3":348,
						"TEXCOORD_4":349,
						"TEXCOORD_5":350
					},
					"indices":351,
					"material":3
				}
			]
		}
	],
	"textures":[
		{
			"sampler":0,
			"source":0
		},
		{
			"sampler":0,
			"source":1
		},
		{
			"sampler":0,
			"source":2
		},
		{
			"sampler":0,
			"source":3
		},
		{
			"sampler":0,
			"source":4
		}
	],
	"images":[
		{
			"mimeType":"image/png",
			"name":"0000027AB7C8BB78",
			"uri":"Texture/0000027AB7C8BB78.png"
		},
		{
			"mimeType":"image/png",
			"name":"0000027ACB209278",
			"uri":"Texture/0000027ACB209278.png"
		},
		{
			"mimeType":"image/png",
			"name":"0000027AD02755B8",
			"uri":"Texture/0000027AD02755B8.png"
		},
		{
			"mimeType":"image/png",
			"name":"0000027AD029D638",
			"uri":"Texture/0000027AD029D638.png"
		},
		{
			"mimeType":"image/png",
			"name":"0000027AD0275338",
			"uri":"Texture/0000027AD0275338.png"
		}
	],
	"accessors":[
		{
			"bufferView":0,
			"componentType":5126,
			"count":264,
			"max":[
				0.008118459954857826,
				0.01315981149673462,
				0.014220885932445526
			],
			"min":[
				-0.008159971795976162,
				-0.013160645961761475,
				-0.015097476541996002
			],
			"type":"VEC3"
		},
		{
			"bufferView":1,
			"componentType":5126,
			"count":264,
			"type":"VEC3"
		},
		{
			"bufferView":2,
			"componentType":5126,
			"count":264,
			"type":"VEC2"
		},
		{
			"bufferView":3,
			"componentType":5126,
			"count":264,
			"type":"VEC2"
		},
		{
			"bufferView":4,
			"componentType":5126,
			"count":264,
			"type":"VEC2"
		},
		{
			"bufferView":5,
			"componentType":5126,
			"count":264,
			"type":"VEC2"
		},
		{
			"bufferView":6,
			"componentType":5123,
			"count":1344,
			"type":"SCALAR"
		},
		{
			"bufferView":7,
			"componentType":5126,
			"count":121,
			"max":[
				0.0025719311088323593,
				0.002558410167694092,
				0.0009001344442367554
			],
			"min":[
				-0.002571936696767807,
				-0.0025585293769836426,
				-0.0009001344442367554
			],
			"type":"VEC3"
		},
		{
			"bufferView":8,
			"componentType":5126,
			"count":121,
			"type":"VEC3"
		},
		{
			"bufferView":9,
			"componentType":5126,
			"count":121,
			"type":"VEC2"
		},
		{
			"bufferView":10,
			"componentType":5126,
			"count":121,
			"type":"VEC2"
		},
		{
			"bufferView":11,
			"componentType":5126,
			"count":121,
			"type":"VEC2"
		},
		{
			"bufferView":12,
			"componentType":5126,
			"count":121,
			"type":"VEC2"
		},
		{
			"bufferView":13,
			"componentType":5123,
			"count":600,
			"type":"SCALAR"
		},
		{
			"bufferView":14,
			"componentType":5126,
			"count":442,
			"max":[
				0.02724577859044075,
				0.014902949333190918,
				0.026596754789352417
			],
			"min":[
				-0.01928057335317135,
				-0.014546811580657959,
				-0.07419868558645248
			],
			"type":"VEC3"
		},
		{
			"bufferView":15,
			"componentType":5126,
			"count":442,
			"type":"VEC3"
		},
		{
			"bufferView":16,
			"componentType":5126,
			"count":442,
			"type":"VEC2"
		},
		{
			"bufferView":17,
			"componentType":5126,
			"count":442,
			"type":"VEC2"
		},
		{
			"bufferView":18,
			"componentType":5126,
			"count":442,
			"type":"VEC2"
		},
		{
			"bufferView":19,
			"componentType":5126,
			"count":442,
			"type":"VEC2"
		},
		{
			"bufferView":20,
			"componentType":5123,
			"count":1932,
			"type":"SCALAR"
		},
		{
			"bufferView":21,
			"componentType":5126,
			"count":323,
			"max":[
				0.0007605226710438728,
				0.0007519125938415527,
				0.0007461532950401306
			],
			"min":[
				-0.0007280325517058372,
				-0.0007383227348327637,
				-0.0007474496960639954
			],
			"type":"VEC3"
		},
		{
			"bufferView":22,
			"componentType":5126,
			"count":323,
			"type":"VEC3"
		},
		{
			"bufferView":23,
			"componentType":5126,
			"count":323,
			"type":"VEC2"
		},
		{
			"bufferView":24,
			"componentType":5126,
			"count":323,
			"type":"VEC2"
		},
		{
			"bufferView":25,
			"componentType":5126,
			"count":323,
			"type":"VEC2"
		},
		{
			"bufferView":26,
			"componentType":5126,
			"count":323,
			"type":"VEC2"
		},
		{
			"bufferView":27,
			"componentType":5123,
			"count":1584,
			"type":"SCALAR"
		},
		{
			"bufferView":28,
			"componentType":5126,
			"count":398,
			"max":[
				0.003842129372060299,
				0.013326585292816162,
				0.0036046206951141357
			],
			"min":[
				-0.008848044089972973,
				-0.006583869457244873,
				-0.004131406545639038
			],
			"type":"VEC3"
		},
		{
			"bufferView":29,
			"componentType":5126,
			"count":398,
			"type":"VEC3"
		},
		{
			"bufferView":30,
			"componentType":5126,
			"count":398,
			"type":"VEC2"
		},
		{
			"bufferView":31,
			"componentType":5126,
			"count":398,
			"type":"VEC2"
		},
		{
			"bufferView":32,
			"componentType":5126,
			"count":398,
			"type":"VEC2"
		},
		{
			"bufferView":33,
			"componentType":5126,
			"count":398,
			"type":"VEC2"
		},
		{
			"bufferView":34,
			"componentType":5123,
			"count":1374,
			"type":"SCALAR"
		},
		{
			"bufferView":35,
			"componentType":5126,
			"count":11055,
			"max":[
				0.008263169787824154,
				0.01977318525314331,
				0.014786407351493835
			],
			"min":[
				-0.009570328518748283,
				-0.018351376056671143,
				-0.015209116041660309
			],
			"type":"VEC3"
		},
		{
			"bufferView":36,
			"componentType":5126,
			"count":11055,
			"type":"VEC3"
		},
		{
			"bufferView":37,
			"componentType":5126,
			"count":11055,
			"type":"VEC2"
		},
		{
			"bufferView":38,
			"componentType":5126,
			"count":11055,
			"type":"VEC2"
		},
		{
			"bufferView":39,
			"componentType":5126,
			"count":11055,
			"type":"VEC2"
		},
		{
			"bufferView":40,
			"componentType":5126,
			"count":11055,
			"type":"VEC2"
		},
		{
			"bufferView":41,
			"componentType":5126,
			"count":11055,
			"type":"VEC2"
		},
		{
			"bufferView":42,
			"componentType":5126,
			"count":11055,
			"type":"VEC2"
		},
		{
			"bufferView":43,
			"componentType":5123,
			"count":33408,
			"type":"SCALAR"
		},
		{
			"bufferView":44,
			"componentType":5126,
			"count":771,
			"max":[
				0.0077277058735489845,
				0.012625515460968018,
				0.014723077416419983
			],
			"min":[
				-0.007479452062398195,
				-0.01389622688293457,
				-0.015491031110286713
			],
			"type":"VEC3"
		},
		{
			"bufferView":45,
			"componentType":5126,
			"count":771,
			"type":"VEC3"
		},
		{
			"bufferView":46,
			"componentType":5126,
			"count":771,
			"type":"VEC2"
		},
		{
			"bufferView":47,
			"componentType":5126,
			"count":771,
			"type":"VEC2"
		},
		{
			"bufferView":48,
			"componentType":5126,
			"count":771,
			"type":"VEC2"
		},
		{
			"bufferView":49,
			"componentType":5126,
			"count":771,
			"type":"VEC2"
		},
		{
			"bufferView":50,
			"componentType":5126,
			"count":771,
			"type":"VEC2"
		},
		{
			"bufferView":51,
			"componentType":5126,
			"count":771,
			"type":"VEC2"
		},
		{
			"bufferView":52,
			"componentType":5123,
			"count":2793,
			"type":"SCALAR"
		},
		{
			"bufferView":53,
			"componentType":5126,
			"count":2455,
			"max":[
				0.006137325428426266,
				0.005293011665344238,
				0.01420515775680542
			],
			"min":[
				-0.005897753871977329,
				-0.009848833084106445,
				-0.014918245375156403
			],
			"type":"VEC3"
		},
		{
			"bufferView":54,
			"componentType":5126,
			"count":2455,
			"type":"VEC3"
		},
		{
			"bufferView":55,
			"componentType":5126,
			"count":2455,
			"type":"VEC2"
		},
		{
			"bufferView":56,
			"componentType":5123,
			"count":8700,
			"type":"SCALAR"
		},
		{
			"bufferView":57,
			"componentType":5126,
			"count":2455,
			"max":[
				0.006281828507781029,
				0.004754245281219482,
				0.01458461582660675
			],
			"min":[
				-0.00895332358777523,
				-0.00544053316116333,
				-0.014500856399536133
			],
			"type":"VEC3"
		},
		{
			"bufferView":58,
			"componentType":5126,
			"count":2455,
			"type":"VEC3"
		},
		{
			"bufferView":59,
			"componentType":5126,
			"count":2455,
			"type":"VEC2"
		},
		{
			"bufferView":60,
			"componentType":5126,
			"count":2455,
			"type":"VEC2"
		},
		{
			"bufferView":61,
			"componentType":5126,
			"count":2455,
			"type":"VEC2"
		},
		{
			"bufferView":62,
			"componentType":5126,
			"count":2455,
			"type":"VEC2"
		},
		{
			"bufferView":63,
			"componentType":5126,
			"count":2455,
			"type":"VEC2"
		},
		{
			"bufferView":64,
			"componentType":5126,
			"count":2455,
			"type":"VEC2"
		},
		{
			"bufferView":65,
			"componentType":5126,
			"count":1886,
			"max":[
				0.01002622302621603,
				0.014760851860046387,
				0.014846421778202057
			],
			"min":[
				-0.007852676324546337,
				-0.01360088586807251,
				-0.01678251475095749
			],
			"type":"VEC3"
		},
		{
			"bufferView":66,
			"componentType":5126,
			"count":1886,
			"type":"VEC3"
		},
		{
			"bufferView":67,
			"componentType":5126,
			"count":1886,
			"type":"VEC2"
		},
		{
			"bufferView":68,
			"componentType":5126,
			"count":1886,
			"type":"VEC2"
		},
		{
			"bufferView":69,
			"componentType":5126,
			"count":1886,
			"type":"VEC2"
		},
		{
			"bufferView":70,
			"componentType":5126,
			"count":1886,
			"type":"VEC2"
		},
		{
			"bufferView":71,
			"componentType":5126,
			"count":1886,
			"type":"VEC2"
		},
		{
			"bufferView":72,
			"componentType":5126,
			"count":1886,
			"type":"VEC2"
		},
		{
			"bufferView":73,
			"componentType":5123,
			"count":6675,
			"type":"SCALAR"
		},
		{
			"bufferView":74,
			"componentType":5126,
			"count":3371,
			"max":[
				0.0017062313854694366,
				0.002031385898590088,
				0.0019886717200279236
			],
			"min":[
				-0.0020031891763210297,
				-0.00188446044921875,
				-0.0020191073417663574
			],
			"type":"VEC3"
		},
		{
			"bufferView":75,
			"componentType":5126,
			"count":3371,
			"type":"VEC3"
		},
		{
			"bufferView":76,
			"componentType":5126,
			"count":3371,
			"type":"VEC2"
		},
		{
			"bufferView":77,
			"componentType":5126,
			"count":3371,
			"type":"VEC2"
		},
		{
			"bufferView":78,
			"componentType":5126,
			"count":3371,
			"type":"VEC2"
		},
		{
			"bufferView":79,
			"componentType":5126,
			"count":3371,
			"type":"VEC2"
		},
		{
			"bufferView":80,
			"componentType":5126,
			"count":3371,
			"type":"VEC2"
		},
		{
			"bufferView":81,
			"componentType":5126,
			"count":3371,
			"type":"VEC2"
		},
		{
			"bufferView":82,
			"componentType":5123,
			"count":9711,
			"type":"SCALAR"
		},
		{
			"bufferView":83,
			"componentType":5126,
			"count":319,
			"max":[
				0.0054496461525559425,
				0.008916676044464111,
				0.006476342678070068
			],
			"min":[
				-0.005418751388788223,
				-0.01032865047454834,
				-0.017131485044956207
			],
			"type":"VEC3"
		},
		{
			"bufferView":84,
			"componentType":5126,
			"count":319,
			"type":"VEC3"
		},
		{
			"bufferView":85,
			"componentType":5126,
			"count":319,
			"type":"VEC2"
		},
		{
			"bufferView":86,
			"componentType":5126,
			"count":319,
			"type":"VEC2"
		},
		{
			"bufferView":87,
			"componentType":5126,
			"count":319,
			"type":"VEC2"
		},
		{
			"bufferView":88,
			"componentType":5126,
			"count":319,
			"type":"VEC2"
		},
		{
			"bufferView":89,
			"componentType":5126,
			"count":319,
			"type":"VEC2"
		},
		{
			"bufferView":90,
			"componentType":5126,
			"count":319,
			"type":"VEC2"
		},
		{
			"bufferView":91,
			"componentType":5123,
			"count":939,
			"type":"SCALAR"
		},
		{
			"bufferView":92,
			"componentType":5126,
			"count":1343,
			"max":[
				0.006852541118860245,
				0.01141268014907837,
				0.010955318808555603
			],
			"min":[
				-0.007835007272660732,
				-0.013034164905548096,
				-0.01634589582681656
			],
			"type":"VEC3"
		},
		{
			"bufferView":93,
			"componentType":5126,
			"count":1343,
			"type":"VEC3"
		},
		{
			"bufferView":94,
			"componentType":5126,
			"count":1343,
			"type":"VEC2"
		},
		{
			"bufferView":95,
			"componentType":5126,
			"count":1343,
			"type":"VEC2"
		},
		{
			"bufferView":96,
			"componentType":5126,
			"count":1343,
			"type":"VEC2"
		},
		{
			"bufferView":97,
			"componentType":5126,
			"count":1343,
			"type":"VEC2"
		},
		{
			"bufferView":98,
			"componentType":5126,
			"count":1343,
			"type":"VEC2"
		},
		{
			"bufferView":99,
			"componentType":5126,
			"count":1343,
			"type":"VEC2"
		},
		{
			"bufferView":100,
			"componentType":5123,
			"count":3963,
			"type":"SCALAR"
		},
		{
			"bufferView":101,
			"componentType":5126,
			"count":1242,
			"max":[
				0.013957874849438667,
				0.012392103672027588,
				0.020241931080818176
			],
			"min":[
				-0.008433971554040909,
				-0.015873491764068604,
				-0.007603250443935394
			],
			"type":"VEC3"
		},
		{
			"bufferView":102,
			"componentType":5126,
			"count":1242,
			"type":"VEC3"
		},
		{
			"bufferView":103,
			"componentType":5126,
			"count":1242,
			"type":"VEC2"
		},
		{
			"bufferView":104,
			"componentType":5126,
			"count":1242,
			"type":"VEC2"
		},
		{
			"bufferView":105,
			"componentType":5126,
			"count":1242,
			"type":"VEC2"
		},
		{
			"bufferView":106,
			"componentType":5126,
			"count":1242,
			"type":"VEC2"
		},
		{
			"bufferView":107,
			"componentType":5126,
			"count":1242,
			"type":"VEC2"
		},
		{
			"bufferView":108,
			"componentType":5126,
			"count":1242,
			"type":"VEC2"
		},
		{
			"bufferView":109,
			"componentType":5123,
			"count":5163,
			"type":"SCALAR"
		},
		{
			"bufferView":110,
			"componentType":5126,
			"count":11055,
			"max":[
				0.017208877950906754,
				0.01624119281768799,
				0.014525443315505981
			],
			"min":[
				-0.011952400207519531,
				-0.015880942344665527,
				-0.015460476279258728
			],
			"type":"VEC3"
		},
		{
			"bufferView":111,
			"componentType":5126,
			"count":11055,
			"type":"VEC3"
		},
		{
			"bufferView":112,
			"componentType":5126,
			"count":11055,
			"type":"VEC2"
		},
		{
			"bufferView":113,
			"componentType":5126,
			"count":11055,
			"type":"VEC2"
		},
		{
			"bufferView":114,
			"componentType":5126,
			"count":11055,
			"type":"VEC2"
		},
		{
			"bufferView":115,
			"componentType":5126,
			"count":11055,
			"type":"VEC2"
		},
		{
			"bufferView":116,
			"componentType":5126,
			"count":11055,
			"type":"VEC2"
		},
		{
			"bufferView":117,
			"componentType":5126,
			"count":11055,
			"type":"VEC2"
		},
		{
			"bufferView":118,
			"componentType":5126,
			"count":3745,
			"max":[
				0.002789849415421486,
				0.003597736358642578,
				0.0038848090916872025
			],
			"min":[
				-0.003881176933646202,
				-0.004549622535705566,
				-0.004642060026526451
			],
			"type":"VEC3"
		},
		{
			"bufferView":119,
			"componentType":5126,
			"count":3745,
			"type":"VEC3"
		},
		{
			"bufferView":120,
			"componentType":5126,
			"count":3745,
			"type":"VEC2"
		},
		{
			"bufferView":121,
			"componentType":5126,
			"count":3745,
			"type":"VEC2"
		},
		{
			"bufferView":122,
			"componentType":5126,
			"count":3745,
			"type":"VEC2"
		},
		{
			"bufferView":123,
			"componentType":5126,
			"count":3745,
			"type":"VEC2"
		},
		{
			"bufferView":124,
			"componentType":5126,
			"count":3745,
			"type":"VEC2"
		},
		{
			"bufferView":125,
			"componentType":5126,
			"count":3745,
			"type":"VEC2"
		},
		{
			"bufferView":126,
			"componentType":5123,
			"count":15726,
			"type":"SCALAR"
		},
		{
			"bufferView":127,
			"componentType":5126,
			"count":4411,
			"max":[
				0.007833991199731827,
				0.014565587043762207,
				0.011847704648971558
			],
			"min":[
				-0.005388803780078888,
				-0.017209172248840332,
				-0.011281237006187439
			],
			"type":"VEC3"
		},
		{
			"bufferView":128,
			"componentType":5126,
			"count":4411,
			"type":"VEC3"
		},
		{
			"bufferView":129,
			"componentType":5126,
			"count":4411,
			"type":"VEC2"
		},
		{
			"bufferView":130,
			"componentType":5126,
			"count":4411,
			"type":"VEC2"
		},
		{
			"bufferView":131,
			"componentType":5126,
			"count":4411,
			"type":"VEC2"
		},
		{
			"bufferView":132,
			"componentType":5126,
			"count":4411,
			"type":"VEC2"
		},
		{
			"bufferView":133,
			"componentType":5126,
			"count":4411,
			"type":"VEC2"
		},
		{
			"bufferView":134,
			"componentType":5126,
			"count":4411,
			"type":"VEC2"
		},
		{
			"bufferView":135,
			"componentType":5123,
			"count":12579,
			"type":"SCALAR"
		},
		{
			"bufferView":136,
			"componentType":5126,
			"count":344,
			"max":[
				0.011395588517189026,
				0.011756479740142822,
				0.0030731335282325745
			],
			"min":[
				-0.011561928316950798,
				-0.011789023876190186,
				-0.002943582832813263
			],
			"type":"VEC3"
		},
		{
			"bufferView":137,
			"componentType":5126,
			"count":344,
			"type":"VEC3"
		},
		{
			"bufferView":138,
			"componentType":5126,
			"count":344,
			"type":"VEC2"
		},
		{
			"bufferView":139,
			"componentType":5126,
			"count":344,
			"type":"VEC2"
		},
		{
			"bufferView":140,
			"componentType":5126,
			"count":344,
			"type":"VEC2"
		},
		{
			"bufferView":141,
			"componentType":5126,
			"count":344,
			"type":"VEC2"
		},
		{
			"bufferView":142,
			"componentType":5126,
			"count":344,
			"type":"VEC2"
		},
		{
			"bufferView":143,
			"componentType":5126,
			"count":344,
			"type":"VEC2"
		},
		{
			"bufferView":144,
			"componentType":5123,
			"count":1308,
			"type":"SCALAR"
		},
		{
			"bufferView":145,
			"componentType":5126,
			"count":3364,
			"max":[
				0.010355198755860329,
				0.0386616587638855,
				0.010428660549223423
			],
			"min":[
				-0.02246132865548134,
				-0.01607424020767212,
				-0.020525993779301643
			],
			"type":"VEC3"
		},
		{
			"bufferView":146,
			"componentType":5126,
			"count":3364,
			"type":"VEC3"
		},
		{
			"bufferView":147,
			"componentType":5126,
			"count":3364,
			"type":"VEC2"
		},
		{
			"bufferView":148,
			"componentType":5126,
			"count":3364,
			"type":"VEC2"
		},
		{
			"bufferView":149,
			"componentType":5126,
			"count":3364,
			"type":"VEC2"
		},
		{
			"bufferView":150,
			"componentType":5126,
			"count":3364,
			"type":"VEC2"
		},
		{
			"bufferView":151,
			"componentType":5126,
			"count":3364,
			"type":"VEC2"
		},
		{
			"bufferView":152,
			"componentType":5126,
			"count":3364,
			"type":"VEC2"
		},
		{
			"bufferView":153,
			"componentType":5123,
			"count":14442,
			"type":"SCALAR"
		},
		{
			"bufferView":154,
			"componentType":5126,
			"count":506,
			"max":[
				0.014635908417403698,
				0.014862000942230225,
				0.0018841293640434742
			],
			"min":[
				-0.014645442366600037,
				-0.014350056648254395,
				-0.0018304218538105488
			],
			"type":"VEC3"
		},
		{
			"bufferView":155,
			"componentType":5126,
			"count":506,
			"type":"VEC3"
		},
		{
			"bufferView":156,
			"componentType":5126,
			"count":506,
			"type":"VEC2"
		},
		{
			"bufferView":157,
			"componentType":5126,
			"count":506,
			"type":"VEC2"
		},
		{
			"bufferView":158,
			"componentType":5126,
			"count":506,
			"type":"VEC2"
		},
		{
			"bufferView":159,
			"componentType":5126,
			"count":506,
			"type":"VEC2"
		},
		{
			"bufferView":160,
			"componentType":5126,
			"count":506,
			"type":"VEC2"
		},
		{
			"bufferView":161,
			"componentType":5126,
			"count":506,
			"type":"VEC2"
		},
		{
			"bufferView":162,
			"componentType":5123,
			"count":1488,
			"type":"SCALAR"
		},
		{
			"bufferView":163,
			"componentType":5126,
			"count":3083,
			"max":[
				0.006264698691666126,
				0.003869354724884033,
				0.0053832270205020905
			],
			"min":[
				-0.00495904078707099,
				-0.005866825580596924,
				-0.005195962265133858
			],
			"type":"VEC3"
		},
		{
			"bufferView":164,
			"componentType":5126,
			"count":3083,
			"type":"VEC3"
		},
		{
			"bufferView":165,
			"componentType":5126,
			"count":3083,
			"type":"VEC2"
		},
		{
			"bufferView":166,
			"componentType":5126,
			"count":3083,
			"type":"VEC2"
		},
		{
			"bufferView":167,
			"componentType":5126,
			"count":3083,
			"type":"VEC2"
		},
		{
			"bufferView":168,
			"componentType":5126,
			"count":3083,
			"type":"VEC2"
		},
		{
			"bufferView":169,
			"componentType":5126,
			"count":3083,
			"type":"VEC2"
		},
		{
			"bufferView":170,
			"componentType":5126,
			"count":3083,
			"type":"VEC2"
		},
		{
			"bufferView":171,
			"componentType":5123,
			"count":6804,
			"type":"SCALAR"
		},
		{
			"bufferView":172,
			"componentType":5126,
			"count":1548,
			"max":[
				0.012299029156565666,
				0.01278066635131836,
				0.004191800951957703
			],
			"min":[
				-0.012525451369583607,
				-0.012434422969818115,
				-0.004338070750236511
			],
			"type":"VEC3"
		},
		{
			"bufferView":173,
			"componentType":5126,
			"count":1548,
			"type":"VEC3"
		},
		{
			"bufferView":174,
			"componentType":5126,
			"count":1548,
			"type":"VEC2"
		},
		{
			"bufferView":175,
			"componentType":5126,
			"count":1548,
			"type":"VEC2"
		},
		{
			"bufferView":176,
			"componentType":5126,
			"count":1548,
			"type":"VEC2"
		},
		{
			"bufferView":177,
			"componentType":5126,
			"count":1548,
			"type":"VEC2"
		},
		{
			"bufferView":178,
			"componentType":5126,
			"count":1548,
			"type":"VEC2"
		},
		{
			"bufferView":179,
			"componentType":5126,
			"count":1548,
			"type":"VEC2"
		},
		{
			"bufferView":180,
			"componentType":5123,
			"count":4893,
			"type":"SCALAR"
		},
		{
			"bufferView":181,
			"componentType":5126,
			"count":5508,
			"max":[
				0.025880979374051094,
				0.01949995756149292,
				0.05577968806028366
			],
			"min":[
				-0.018707679584622383,
				-0.012196898460388184,
				-0.04975606128573418
			],
			"type":"VEC3"
		},
		{
			"bufferView":182,
			"componentType":5126,
			"count":5508,
			"type":"VEC3"
		},
		{
			"bufferView":183,
			"componentType":5126,
			"count":5508,
			"type":"VEC2"
		},
		{
			"bufferView":184,
			"componentType":5126,
			"count":5508,
			"type":"VEC2"
		},
		{
			"bufferView":185,
			"componentType":5126,
			"count":5508,
			"type":"VEC2"
		},
		{
			"bufferView":186,
			"componentType":5126,
			"count":5508,
			"type":"VEC2"
		},
		{
			"bufferView":187,
			"componentType":5126,
			"count":5508,
			"type":"VEC2"
		},
		{
			"bufferView":188,
			"componentType":5126,
			"count":5508,
			"type":"VEC2"
		},
		{
			"bufferView":189,
			"componentType":5123,
			"count":16869,
			"type":"SCALAR"
		},
		{
			"bufferView":190,
			"componentType":5126,
			"count":700,
			"max":[
				0.022255733609199524,
				0.016918540000915527,
				0.02914939634501934
			],
			"min":[
				-0.01620779186487198,
				-0.0123521089553833,
				-0.04728356748819351
			],
			"type":"VEC3"
		},
		{
			"bufferView":191,
			"componentType":5126,
			"count":700,
			"type":"VEC3"
		},
		{
			"bufferView":192,
			"componentType":5126,
			"count":700,
			"type":"VEC2"
		},
		{
			"bufferView":193,
			"componentType":5126,
			"count":700,
			"type":"VEC2"
		},
		{
			"bufferView":194,
			"componentType":5126,
			"count":700,
			"type":"VEC2"
		},
		{
			"bufferView":195,
			"componentType":5126,
			"count":700,
			"type":"VEC2"
		},
		{
			"bufferView":196,
			"componentType":5126,
			"count":700,
			"type":"VEC2"
		},
		{
			"bufferView":197,
			"componentType":5126,
			"count":700,
			"type":"VEC2"
		},
		{
			"bufferView":198,
			"componentType":5123,
			"count":2919,
			"type":"SCALAR"
		},
		{
			"bufferView":199,
			"componentType":5126,
			"count":741,
			"max":[
				0.001633182168006897,
				0.002435743808746338,
				0.0025374647229909897
			],
			"min":[
				-0.00574817880988121,
				-0.005154430866241455,
				-0.004357444122433662
			],
			"type":"VEC3"
		},
		{
			"bufferView":200,
			"componentType":5126,
			"count":741,
			"type":"VEC3"
		},
		{
			"bufferView":201,
			"componentType":5126,
			"count":741,
			"type":"VEC2"
		},
		{
			"bufferView":202,
			"componentType":5126,
			"count":741,
			"type":"VEC2"
		},
		{
			"bufferView":203,
			"componentType":5126,
			"count":741,
			"type":"VEC2"
		},
		{
			"bufferView":204,
			"componentType":5126,
			"count":741,
			"type":"VEC2"
		},
		{
			"bufferView":205,
			"componentType":5126,
			"count":741,
			"type":"VEC2"
		},
		{
			"bufferView":206,
			"componentType":5126,
			"count":741,
			"type":"VEC2"
		},
		{
			"bufferView":207,
			"componentType":5123,
			"count":2661,
			"type":"SCALAR"
		},
		{
			"bufferView":208,
			"componentType":5126,
			"count":1808,
			"max":[
				0.003132268786430359,
				0.0034696459770202637,
				0.008066730573773384
			],
			"min":[
				-0.0073003992438316345,
				-0.005766928195953369,
				-0.00859050266444683
			],
			"type":"VEC3"
		},
		{
			"bufferView":209,
			"componentType":5126,
			"count":1808,
			"type":"VEC3"
		},
		{
			"bufferView":210,
			"componentType":5126,
			"count":1808,
			"type":"VEC2"
		},
		{
			"bufferView":211,
			"componentType":5126,
			"count":1808,
			"type":"VEC2"
		},
		{
			"bufferView":212,
			"componentType":5126,
			"count":1808,
			"type":"VEC2"
		},
		{
			"bufferView":213,
			"componentType":5126,
			"count":1808,
			"type":"VEC2"
		},
		{
			"bufferView":214,
			"componentType":5126,
			"count":1808,
			"type":"VEC2"
		},
		{
			"bufferView":215,
			"componentType":5126,
			"count":1808,
			"type":"VEC2"
		},
		{
			"bufferView":216,
			"componentType":5123,
			"count":5436,
			"type":"SCALAR"
		},
		{
			"bufferView":217,
			"componentType":5126,
			"count":8277,
			"max":[
				0.01752963662147522,
				0.012574732303619385,
				0.02568615972995758
			],
			"min":[
				-0.02641027420759201,
				-0.022191762924194336,
				-0.07775061577558517
			],
			"type":"VEC3"
		},
		{
			"bufferView":218,
			"componentType":5126,
			"count":8277,
			"type":"VEC3"
		},
		{
			"bufferView":219,
			"componentType":5126,
			"count":8277,
			"type":"VEC2"
		},
		{
			"bufferView":220,
			"componentType":5126,
			"count":8277,
			"type":"VEC2"
		},
		{
			"bufferView":221,
			"componentType":5126,
			"count":8277,
			"type":"VEC2"
		},
		{
			"bufferView":222,
			"componentType":5126,
			"count":8277,
			"type":"VEC2"
		},
		{
			"bufferView":223,
			"componentType":5126,
			"count":8277,
			"type":"VEC2"
		},
		{
			"bufferView":224,
			"componentType":5126,
			"count":8277,
			"type":"VEC2"
		},
		{
			"bufferView":225,
			"componentType":5123,
			"count":33609,
			"type":"SCALAR"
		},
		{
			"bufferView":226,
			"componentType":5126,
			"count":919,
			"max":[
				0.005658171139657497,
				0.006223857402801514,
				0.009996765293180943
			],
			"min":[
				-0.0031249243766069412,
				-0.004602670669555664,
				-0.007281498983502388
			],
			"type":"VEC3"
		},
		{
			"bufferView":227,
			"componentType":5126,
			"count":919,
			"type":"VEC3"
		},
		{
			"bufferView":228,
			"componentType":5126,
			"count":919,
			"type":"VEC2"
		},
		{
			"bufferView":229,
			"componentType":5126,
			"count":919,
			"type":"VEC2"
		},
		{
			"bufferView":230,
			"componentType":5126,
			"count":919,
			"type":"VEC2"
		},
		{
			"bufferView":231,
			"componentType":5126,
			"count":919,
			"type":"VEC2"
		},
		{
			"bufferView":232,
			"componentType":5126,
			"count":919,
			"type":"VEC2"
		},
		{
			"bufferView":233,
			"componentType":5126,
			"count":919,
			"type":"VEC2"
		},
		{
			"bufferView":234,
			"componentType":5123,
			"count":3123,
			"type":"SCALAR"
		},
		{
			"bufferView":235,
			"componentType":5126,
			"count":2120,
			"max":[
				0.00301948469132185,
				0.004294633865356445,
				0.0031036995351314545
			],
			"min":[
				-0.0019846726208925247,
				-0.0034546256065368652,
				-0.003296066075563431
			],
			"type":"VEC3"
		},
		{
			"bufferView":236,
			"componentType":5126,
			"count":2120,
			"type":"VEC3"
		},
		{
			"bufferView":237,
			"componentType":5126,
			"count":2120,
			"type":"VEC2"
		},
		{
			"bufferView":238,
			"componentType":5126,
			"count":2120,
			"type":"VEC2"
		},
		{
			"bufferView":239,
			"componentType":5126,
			"count":2120,
			"type":"VEC2"
		},
		{
			"bufferView":240,
			"componentType":5126,
			"count":2120,
			"type":"VEC2"
		},
		{
			"bufferView":241,
			"componentType":5126,
			"count":2120,
			"type":"VEC2"
		},
		{
			"bufferView":242,
			"componentType":5126,
			"count":2120,
			"type":"VEC2"
		},
		{
			"bufferView":243,
			"componentType":5123,
			"count":3786,
			"type":"SCALAR"
		},
		{
			"bufferView":244,
			"componentType":5126,
			"count":883,
			"max":[
				0.013048013672232628,
				0.023698508739471436,
				0.008435232564806938
			],
			"min":[
				-0.01645621284842491,
				-0.01909506320953369,
				-0.004973582923412323
			],
			"type":"VEC3"
		},
		{
			"bufferView":245,
			"componentType":5126,
			"count":883,
			"type":"VEC3"
		},
		{
			"bufferView":246,
			"componentType":5126,
			"count":883,
			"type":"VEC2"
		},
		{
			"bufferView":247,
			"componentType":5126,
			"count":883,
			"type":"VEC2"
		},
		{
			"bufferView":248,
			"componentType":5126,
			"count":883,
			"type":"VEC2"
		},
		{
			"bufferView":249,
			"componentType":5126,
			"count":883,
			"type":"VEC2"
		},
		{
			"bufferView":250,
			"componentType":5126,
			"count":883,
			"type":"VEC2"
		},
		{
			"bufferView":251,
			"componentType":5126,
			"count":883,
			"type":"VEC2"
		},
		{
			"bufferView":252,
			"componentType":5123,
			"count":3159,
			"type":"SCALAR"
		},
		{
			"bufferView":253,
			"componentType":5126,
			"count":44,
			"max":[
				0.0019430266693234444,
				0.005462348461151123,
				0.002726098522543907
			],
			"min":[
				-0.0038193161599338055,
				-0.0023325085639953613,
				-0.003059184178709984
			],
			"type":"VEC3"
		},
		{
			"bufferView":254,
			"componentType":5126,
			"count":44,
			"type":"VEC3"
		},
		{
			"bufferView":255,
			"componentType":5126,
			"count":44,
			"type":"VEC2"
		},
		{
			"bufferView":256,
			"componentType":5126,
			"count":44,
			"type":"VEC2"
		},
		{
			"bufferView":257,
			"componentType":5126,
			"count":44,
			"type":"VEC2"
		},
		{
			"bufferView":258,
			"componentType":5126,
			"count":44,
			"type":"VEC2"
		},
		{
			"bufferView":259,
			"componentType":5126,
			"count":44,
			"type":"VEC2"
		},
		{
			"bufferView":260,
			"componentType":5126,
			"count":44,
			"type":"VEC2"
		},
		{
			"bufferView":261,
			"componentType":5123,
			"count":84,
			"type":"SCALAR"
		},
		{
			"bufferView":262,
			"componentType":5126,
			"count":248,
			"max":[
				0.002734612673521042,
				0.0036550164222717285,
				0.0036020707339048386
			],
			"min":[
				-0.003362694988027215,
				-0.0026479363441467285,
				-0.0038605090230703354
			],
			"type":"VEC3"
		},
		{
			"bufferView":263,
			"componentType":5126,
			"count":248,
			"type":"VEC3"
		},
		{
			"bufferView":264,
			"componentType":5126,
			"count":248,
			"type":"VEC2"
		},
		{
			"bufferView":265,
			"componentType":5126,
			"count":248,
			"type":"VEC2"
		},
		{
			"bufferView":266,
			"componentType":5126,
			"count":248,
			"type":"VEC2"
		},
		{
			"bufferView":267,
			"componentType":5126,
			"count":248,
			"type":"VEC2"
		},
		{
			"bufferView":268,
			"componentType":5126,
			"count":248,
			"type":"VEC2"
		},
		{
			"bufferView":269,
			"componentType":5126,
			"count":248,
			"type":"VEC2"
		},
		{
			"bufferView":270,
			"componentType":5123,
			"count":708,
			"type":"SCALAR"
		},
		{
			"bufferView":271,
			"componentType":5126,
			"count":363,
			"max":[
				0.0038091521710157394,
				0.0041634440422058105,
				0.005343219265341759
			],
			"min":[
				-0.0071927523240447044,
				-0.008063554763793945,
				-0.007616579532623291
			],
			"type":"VEC3"
		},
		{
			"bufferView":272,
			"componentType":5126,
			"count":363,
			"type":"VEC3"
		},
		{
			"bufferView":273,
			"componentType":5126,
			"count":363,
			"type":"VEC2"
		},
		{
			"bufferView":274,
			"componentType":5126,
			"count":363,
			"type":"VEC2"
		},
		{
			"bufferView":275,
			"componentType":5126,
			"count":363,
			"type":"VEC2"
		},
		{
			"bufferView":276,
			"componentType":5126,
			"count":363,
			"type":"VEC2"
		},
		{
			"bufferView":277,
			"componentType":5126,
			"count":363,
			"type":"VEC2"
		},
		{
			"bufferView":278,
			"componentType":5126,
			"count":363,
			"type":"VEC2"
		},
		{
			"bufferView":279,
			"componentType":5123,
			"count":1536,
			"type":"SCALAR"
		},
		{
			"bufferView":280,
			"componentType":5126,
			"count":1846,
			"max":[
				0.006487539038062096,
				0.004814207553863525,
				0.005146503448486328
			],
			"min":[
				-0.008901081047952175,
				-0.0050866007804870605,
				-0.008996691554784775
			],
			"type":"VEC3"
		},
		{
			"bufferView":281,
			"componentType":5126,
			"count":1846,
			"type":"VEC3"
		},
		{
			"bufferView":282,
			"componentType":5126,
			"count":1846,
			"type":"VEC2"
		},
		{
			"bufferView":283,
			"componentType":5126,
			"count":1846,
			"type":"VEC2"
		},
		{
			"bufferView":284,
			"componentType":5126,
			"count":1846,
			"type":"VEC2"
		},
		{
			"bufferView":285,
			"componentType":5126,
			"count":1846,
			"type":"VEC2"
		},
		{
			"bufferView":286,
			"componentType":5126,
			"count":1846,
			"type":"VEC2"
		},
		{
			"bufferView":287,
			"componentType":5126,
			"count":1846,
			"type":"VEC2"
		},
		{
			"bufferView":288,
			"componentType":5123,
			"count":5544,
			"type":"SCALAR"
		},
		{
			"bufferView":289,
			"componentType":5126,
			"count":1071,
			"max":[
				0.006189017556607723,
				0.006127536296844482,
				0.004965461790561676
			],
			"min":[
				-0.004962375853210688,
				-0.0040961503982543945,
				-0.00559980608522892
			],
			"type":"VEC3"
		},
		{
			"bufferView":290,
			"componentType":5126,
			"count":1071,
			"type":"VEC3"
		},
		{
			"bufferView":291,
			"componentType":5126,
			"count":1071,
			"type":"VEC2"
		},
		{
			"bufferView":292,
			"componentType":5126,
			"count":1071,
			"type":"VEC2"
		},
		{
			"bufferView":293,
			"componentType":5126,
			"count":1071,
			"type":"VEC2"
		},
		{
			"bufferView":294,
			"componentType":5126,
			"count":1071,
			"type":"VEC2"
		},
		{
			"bufferView":295,
			"componentType":5126,
			"count":1071,
			"type":"VEC2"
		},
		{
			"bufferView":296,
			"componentType":5126,
			"count":1071,
			"type":"VEC2"
		},
		{
			"bufferView":297,
			"componentType":5123,
			"count":3834,
			"type":"SCALAR"
		},
		{
			"bufferView":298,
			"componentType":5126,
			"count":408,
			"max":[
				0.0006494048284366727,
				0.003771662712097168,
				0.003755168989300728
			],
			"min":[
				-0.0004325876943767071,
				-0.003732025623321533,
				-0.0037675555795431137
			],
			"type":"VEC3"
		},
		{
			"bufferView":299,
			"componentType":5126,
			"count":408,
			"type":"VEC3"
		},
		{
			"bufferView":300,
			"componentType":5126,
			"count":408,
			"type":"VEC2"
		},
		{
			"bufferView":301,
			"componentType":5126,
			"count":408,
			"type":"VEC2"
		},
		{
			"bufferView":302,
			"componentType":5126,
			"count":408,
			"type":"VEC2"
		},
		{
			"bufferView":303,
			"componentType":5126,
			"count":408,
			"type":"VEC2"
		},
		{
			"bufferView":304,
			"componentType":5126,
			"count":408,
			"type":"VEC2"
		},
		{
			"bufferView":305,
			"componentType":5126,
			"count":408,
			"type":"VEC2"
		},
		{
			"bufferView":306,
			"componentType":5123,
			"count":1335,
			"type":"SCALAR"
		},
		{
			"bufferView":307,
			"componentType":5126,
			"count":2984,
			"max":[
				0.028544194996356964,
				0.04710143804550171,
				0.02846027910709381
			],
			"min":[
				-0.022759199142456055,
				-0.02818012237548828,
				-0.029824409633874893
			],
			"type":"VEC3"
		},
		{
			"bufferView":308,
			"componentType":5126,
			"count":2984,
			"type":"VEC3"
		},
		{
			"bufferView":309,
			"componentType":5126,
			"count":2984,
			"type":"VEC2"
		},
		{
			"bufferView":310,
			"componentType":5126,
			"count":2984,
			"type":"VEC2"
		},
		{
			"bufferView":311,
			"componentType":5126,
			"count":2984,
			"type":"VEC2"
		},
		{
			"bufferView":312,
			"componentType":5126,
			"count":2984,
			"type":"VEC2"
		},
		{
			"bufferView":313,
			"componentType":5126,
			"count":2984,
			"type":"VEC2"
		},
		{
			"bufferView":314,
			"componentType":5126,
			"count":2984,
			"type":"VEC2"
		},
		{
			"bufferView":315,
			"componentType":5123,
			"count":12117,
			"type":"SCALAR"
		},
		{
			"bufferView":316,
			"componentType":5126,
			"count":1294,
			"max":[
				0.022197065874934196,
				0.026324450969696045,
				0.024777404963970184
			],
			"min":[
				-0.009842604398727417,
				-0.015414237976074219,
				-0.021674077957868576
			],
			"type":"VEC3"
		},
		{
			"bufferView":317,
			"componentType":5126,
			"count":1294,
			"type":"VEC3"
		},
		{
			"bufferView":318,
			"componentType":5126,
			"count":1294,
			"type":"VEC2"
		},
		{
			"bufferView":319,
			"componentType":5126,
			"count":1294,
			"type":"VEC2"
		},
		{
			"bufferView":320,
			"componentType":5126,
			"count":1294,
			"type":"VEC2"
		},
		{
			"bufferView":321,
			"componentType":5126,
			"count":1294,
			"type":"VEC2"
		},
		{
			"bufferView":322,
			"componentType":5126,
			"count":1294,
			"type":"VEC2"
		},
		{
			"bufferView":323,
			"componentType":5126,
			"count":1294,
			"type":"VEC2"
		},
		{
			"bufferView":324,
			"componentType":5123,
			"count":4428,
			"type":"SCALAR"
		},
		{
			"bufferView":325,
			"componentType":5126,
			"count":3583,
			"max":[
				0.011060993187129498,
				0.007825195789337158,
				0.03563472256064415
			],
			"min":[
				-0.01872730441391468,
				-0.019034624099731445,
				-0.01270473562180996
			],
			"type":"VEC3"
		},
		{
			"bufferView":326,
			"componentType":5126,
			"count":3583,
			"type":"VEC3"
		},
		{
			"bufferView":327,
			"componentType":5126,
			"count":3583,
			"type":"VEC2"
		},
		{
			"bufferView":328,
			"componentType":5126,
			"count":3583,
			"type":"VEC2"
		},
		{
			"bufferView":329,
			"componentType":5126,
			"count":3583,
			"type":"VEC2"
		},
		{
			"bufferView":330,
			"componentType":5126,
			"count":3583,
			"type":"VEC2"
		},
		{
			"bufferView":331,
			"componentType":5126,
			"count":3583,
			"type":"VEC2"
		},
		{
			"bufferView":332,
			"componentType":5126,
			"count":3583,
			"type":"VEC2"
		},
		{
			"bufferView":333,
			"componentType":5123,
			"count":13113,
			"type":"SCALAR"
		},
		{
			"bufferView":334,
			"componentType":5126,
			"count":567,
			"max":[
				0.01214683149009943,
				0.009155571460723877,
				0.02257080376148224
			],
			"min":[
				-0.014350490644574165,
				-0.010860443115234375,
				-0.016632817685604095
			],
			"type":"VEC3"
		},
		{
			"bufferView":335,
			"componentType":5126,
			"count":567,
			"type":"VEC3"
		},
		{
			"bufferView":336,
			"componentType":5126,
			"count":567,
			"type":"VEC2"
		},
		{
			"bufferView":337,
			"componentType":5126,
			"count":567,
			"type":"VEC2"
		},
		{
			"bufferView":338,
			"componentType":5126,
			"count":567,
			"type":"VEC2"
		},
		{
			"bufferView":339,
			"componentType":5126,
			"count":567,
			"type":"VEC2"
		},
		{
			"bufferView":340,
			"componentType":5126,
			"count":567,
			"type":"VEC2"
		},
		{
			"bufferView":341,
			"componentType":5126,
			"count":567,
			"type":"VEC2"
		},
		{
			"bufferView":342,
			"componentType":5123,
			"count":1728,
			"type":"SCALAR"
		},
		{
			"bufferView":343,
			"componentType":5126,
			"count":409,
			"max":[
				0.0004309900104999542,
				0.003749370574951172,
				0.0037518199533224106
			],
			"min":[
				-0.0006509125232696533,
				-0.0037598609924316406,
				-0.0037740282714366913
			],
			"type":"VEC3"
		},
		{
			"bufferView":344,
			"componentType":5126,
			"count":409,
			"type":"VEC3"
		},
		{
			"bufferView":345,
			"componentType":5126,
			"count":409,
			"type":"VEC2"
		},
		{
			"bufferView":346,
			"componentType":5126,
			"count":409,
			"type":"VEC2"
		},
		{
			"bufferView":347,
			"componentType":5126,
			"count":409,
			"type":"VEC2"
		},
		{
			"bufferView":348,
			"componentType":5126,
			"count":409,
			"type":"VEC2"
		},
		{
			"bufferView":349,
			"componentType":5126,
			"count":409,
			"type":"VEC2"
		},
		{
			"bufferView":350,
			"componentType":5126,
			"count":409,
			"type":"VEC2"
		},
		{
			"bufferView":351,
			"componentType":5123,
			"count":1332,
			"type":"SCALAR"
		}
	],
	"bufferViews":[
		{
			"buffer":0,
			"byteLength":3168,
			"byteOffset":0,
			"target":34962
		},
		{
			"buffer":0,
			"byteLength":3168,
			"byteOffset":3168,
			"target":34962
		},
		{
			"buffer":0,
			"byteLength":2112,
			"byteOffset":6336,
			"target":34962
		},
		{
			"buffer":0,
			"byteLength":2112,
			"byteOffset":8448,
			"target":34962
		},
		{
			"buffer":0,
			"byteLength":2112,
			"byteOffset":10560,
			"target":34962
		},
		{
			"buffer":0,
			"byteLength":2112,
			"byteOffset":12672,
			"target":34962
		},
		{
			"buffer":0,
			"byteLength":2688,
			"byteOffset":14784,
			"target":34963
		},
		{
			"buffer":0,
			"byteLength":1452,
			"byteOffset":17472,
			"target":34962
		},
		{
			"buffer":0,
			"byteLength":1452,
			"byteOffset":18924,
			"target":34962
		},
		{
			"buffer":0,
			"byteLength":968,
			"byteOffset":20376,
			"target":34962
		},
		{
			"buffer":0,
			"byteLength":968,
			"byteOffset":21344,
			"target":34962
		},
		{
			"buffer":0,
			"byteLength":968,
			"byteOffset":22312,
			"target":34962
		},
		{
			"buffer":0,
			"byteLength":968,
			"byteOffset":23280,
			"target":34962
		},
		{
			"buffer":0,
			"byteLength":1200,
			"byteOffset":24248,
			"target":34963
		},
		{
			"buffer":0,
			"byteLength":5304,
			"byteOffset":25448,
			"target":34962
		},
		{
			"buffer":0,
			"byteLength":5304,
			"byteOffset":30752,
			"target":34962
		},
		{
			"buffer":0,
			"byteLength":3536,
			"byteOffset":36056,
			"target":34962
		},
		{
			"buffer":0,
			"byteLength":3536,
			"byteOffset":39592,
			"target":34962
		},
		{
			"buffer":0,
			"byteLength":3536,
			"byteOffset":43128,
			"target":34962
		},
		{
			"buffer":0,
			"byteLength":3536,
			"byteOffset":46664,
			"target":34962
		},
		{
			"buffer":0,
			"byteLength":3864,
			"byteOffset":50200,
			"target":34963
		},
		{
			"buffer":0,
			"byteLength":3876,
			"byteOffset":54064,
			"target":34962
		},
		{
			"buffer":0,
			"byteLength":3876,
			"byteOffset":57940,
			"target":34962
		},
		{
			"buffer":0,
			"byteLength":2584,
			"byteOffset":61816,
			"target":34962
		},
		{
			"buffer":0,
			"byteLength":2584,
			"byteOffset":64400,
			"target":34962
		},
		{
			"buffer":0,
			"byteLength":2584,
			"byteOffset":66984,
			"target":34962
		},
		{
			"buffer":0,
			"byteLength":2584,
			"byteOffset":69568,
			"target":34962
		},
		{
			"buffer":0,
			"byteLength":3168,
			"byteOffset":72152,
			"target":34963
		},
		{
			"buffer":0,
			"byteLength":4776,
			"byteOffset":75320,
			"target":34962
		},
		{
			"buffer":0,
			"byteLength":4776,
			"byteOffset":80096,
			"target":34962
		},
		{
			"buffer":0,
			"byteLength":3184,
			"byteOffset":84872,
			"target":34962
		},
		{
			"buffer":0,
			"byteLength":3184,
			"byteOffset":88056,
			"target":34962
		},
		{
			"buffer":0,
			"byteLength":3184,
			"byteOffset":91240,
			"target":34962
		},
		{
			"buffer":0,
			"byteLength":3184,
			"byteOffset":94424,
			"target":34962
		},
		{
			"buffer":0,
			"byteLength":2748,
			"byteOffset":97608,
			"target":34963
		},
		{
			"buffer":0,
			"byteLength":132660,
			"byteOffset":100356,
			"target":34962
		},
		{
			"buffer":0,
			"byteLength":132660,
			"byteOffset":233016,
			"target":34962
		},
		{
			"buffer":0,
			"byteLength":88440,
			"byteOffset":365676,
			"target":34962
		},
		{
			"buffer":0,
			"byteLength":88440,
			"byteOffset":454116,
			"target":34962
		},
		{
			"buffer":0,
			"byteLength":88440,
			"byteOffset":542556,
			"target":34962
		},
		{
			"buffer":0,
			"byteLength":88440,
			"byteOffset":630996,
			"target":34962
		},
		{
			"buffer":0,
			"byteLength":88440,
			"byteOffset":719436,
			"target":34962
		},
		{
			"buffer":0,
			"byteLength":88440,
			"byteOffset":807876,
			"target":34962
		},
		{
			"buffer":0,
			"byteLength":66816,
			"byteOffset":896316,
			"target":34963
		},
		{
			"buffer":0,
			"byteLength":9252,
			"byteOffset":963132,
			"target":34962
		},
		{
			"buffer":0,
			"byteLength":9252,
			"byteOffset":972384,
			"target":34962
		},
		{
			"buffer":0,
			"byteLength":6168,
			"byteOffset":981636,
			"target":34962
		},
		{
			"buffer":0,
			"byteLength":6168,
			"byteOffset":987804,
			"target":34962
		},
		{
			"buffer":0,
			"byteLength":6168,
			"byteOffset":993972,
			"target":34962
		},
		{
			"buffer":0,
			"byteLength":6168,
			"byteOffset":1000140,
			"target":34962
		},
		{
			"buffer":0,
			"byteLength":6168,
			"byteOffset":1006308,
			"target":34962
		},
		{
			"buffer":0,
			"byteLength":6168,
			"byteOffset":1012476,
			"target":34962
		},
		{
			"buffer":0,
			"byteLength":5586,
			"byteOffset":1018644,
			"target":34963
		},
		{
			"buffer":0,
			"byteLength":29460,
			"byteOffset":1024232,
			"target":34962
		},
		{
			"buffer":0,
			"byteLength":29460,
			"byteOffset":1053692,
			"target":34962
		},
		{
			"buffer":0,
			"byteLength":19640,
			"byteOffset":1083152,
			"target":34962
		},
		{
			"buffer":0,
			"byteLength":17400,
			"byteOffset":1102792,
			"target":34963
		},
		{
			"buffer":0,
			"byteLength":29460,
			"byteOffset":1120192,
			"target":34962
		},
		{
			"buffer":0,
			"byteLength":29460,
			"byteOffset":1149652,
			"target":34962
		},
		{
			"buffer":0,
			"byteLength":19640,
			"byteOffset":1179112,
			"target":34962
		},
		{
			"buffer":0,
			"byteLength":19640,
			"byteOffset":1198752,
			"target":34962
		},
		{
			"buffer":0,
			"byteLength":19640,
			"byteOffset":1218392,
			"target":34962
		},
		{
			"buffer":0,
			"byteLength":19640,
			"byteOffset":1238032,
			"target":34962
		},
		{
			"buffer":0,
			"byteLength":19640,
			"byteOffset":1257672,
			"target":34962
		},
		{
			"buffer":0,
			"byteLength":19640,
			"byteOffset":1277312,
			"target":34962
		},
		{
			"buffer":0,
			"byteLength":22632,
			"byteOffset":1296952,
			"target":34962
		},
		{
			"buffer":0,
			"byteLength":22632,
			"byteOffset":1319584,
			"target":34962
		},
		{
			"buffer":0,
			"byteLength":15088,
			"byteOffset":1342216,
			"target":34962
		},
		{
			"buffer":0,
			"byteLength":15088,
			"byteOffset":1357304,
			"target":34962
		},
		{
			"buffer":0,
			"byteLength":15088,
			"byteOffset":1372392,
			"target":34962
		},
		{
			"buffer":0,
			"byteLength":15088,
			"byteOffset":1387480,
			"target":34962
		},
		{
			"buffer":0,
			"byteLength":15088,
			"byteOffset":1402568,
			"target":34962
		},
		{
			"buffer":0,
			"byteLength":15088,
			"byteOffset":1417656,
			"target":34962
		},
		{
			"buffer":0,
			"byteLength":13350,
			"byteOffset":1432744,
			"target":34963
		},
		{
			"buffer":0,
			"byteLength":40452,
			"byteOffset":1446096,
			"target":34962
		},
		{
			"buffer":0,
			"byteLength":40452,
			"byteOffset":1486548,
			"target":34962
		},
		{
			"buffer":0,
			"byteLength":26968,
			"byteOffset":1527000,
			"target":34962
		},
		{
			"buffer":0,
			"byteLength":26968,
			"byteOffset":1553968,
			"target":34962
		},
		{
			"buffer":0,
			"byteLength":26968,
			"byteOffset":1580936,
			"target":34962
		},
		{
			"buffer":0,
			"byteLength":26968,
			"byteOffset":1607904,
			"target":34962
		},
		{
			"buffer":0,
			"byteLength":26968,
			"byteOffset":1634872,
			"target":34962
		},
		{
			"buffer":0,
			"byteLength":26968,
			"byteOffset":1661840,
			"target":34962
		},
		{
			"buffer":0,
			"byteLength":19422,
			"byteOffset":1688808,
			"target":34963
		},
		{
			"buffer":0,
			"byteLength":3828,
			"byteOffset":1708232,
			"target":34962
		},
		{
			"buffer":0,
			"byteLength":3828,
			"byteOffset":1712060,
			"target":34962
		},
		{
			"buffer":0,
			"byteLength":2552,
			"byteOffset":1715888,
			"target":34962
		},
		{
			"buffer":0,
			"byteLength":2552,
			"byteOffset":1718440,
			"target":34962
		},
		{
			"buffer":0,
			"byteLength":2552,
			"byteOffset":1720992,
			"target":34962
		},
		{
			"buffer":0,
			"byteLength":2552,
			"byteOffset":1723544,
			"target":34962
		},
		{
			"buffer":0,
			"byteLength":2552,
			"byteOffset":1726096,
			"target":34962
		},
		{
			"buffer":0,
			"byteLength":2552,
			"byteOffset":1728648,
			"target":34962
		},
		{
			"buffer":0,
			"byteLength":1878,
			"byteOffset":1731200,
			"target":34963
		},
		{
			"buffer":0,
			"byteLength":16116,
			"byteOffset":1733080,
			"target":34962
		},
		{
			"buffer":0,
			"byteLength":16116,
			"byteOffset":1749196,
			"target":34962
		},
		{
			"buffer":0,
			"byteLength":10744,
			"byteOffset":1765312,
			"target":34962
		},
		{
			"buffer":0,
			"byteLength":10744,
			"byteOffset":1776056,
			"target":34962
		},
		{
			"buffer":0,
			"byteLength":10744,
			"byteOffset":1786800,
			"target":34962
		},
		{
			"buffer":0,
			"byteLength":10744,
			"byteOffset":1797544,
			"target":34962
		},
		{
			"buffer":0,
			"byteLength":10744,
			"byteOffset":1808288,
			"target":34962
		},
		{
			"buffer":0,
			"byteLength":10744,
			"byteOffset":1819032,
			"target":34962
		},
		{
			"buffer":0,
			"byteLength":7926,
			"byteOffset":1829776,
			"target":34963
		},
		{
			"buffer":0,
			"byteLength":14904,
			"byteOffset":1837704,
			"target":34962
		},
		{
			"buffer":0,
			"byteLength":14904,
			"byteOffset":1852608,
			"target":34962
		},
		{
			"buffer":0,
			"byteLength":9936,
			"byteOffset":1867512,
			"target":34962
		},
		{
			"buffer":0,
			"byteLength":9936,
			"byteOffset":1877448,
			"target":34962
		},
		{
			"buffer":0,
			"byteLength":9936,
			"byteOffset":1887384,
			"target":34962
		},
		{
			"buffer":0,
			"byteLength":9936,
			"byteOffset":1897320,
			"target":34962
		},
		{
			"buffer":0,
			"byteLength":9936,
			"byteOffset":1907256,
			"target":34962
		},
		{
			"buffer":0,
			"byteLength":9936,
			"byteOffset":1917192,
			"target":34962
		},
		{
			"buffer":0,
			"byteLength":10326,
			"byteOffset":1927128,
			"target":34963
		},
		{
			"buffer":0,
			"byteLength":132660,
			"byteOffset":1937456,
			"target":34962
		},
		{
			"buffer":0,
			"byteLength":132660,
			"byteOffset":2070116,
			"target":34962
		},
		{
			"buffer":0,
			"byteLength":88440,
			"byteOffset":2202776,
			"target":34962
		},
		{
			"buffer":0,
			"byteLength":88440,
			"byteOffset":2291216,
			"target":34962
		},
		{
			"buffer":0,
			"byteLength":88440,
			"byteOffset":2379656,
			"target":34962
		},
		{
			"buffer":0,
			"byteLength":88440,
			"byteOffset":2468096,
			"target":34962
		},
		{
			"buffer":0,
			"byteLength":88440,
			"byteOffset":2556536,
			"target":34962
		},
		{
			"buffer":0,
			"byteLength":88440,
			"byteOffset":2644976,
			"target":34962
		},
		{
			"buffer":0,
			"byteLength":44940,
			"byteOffset":2733416,
			"target":34962
		},
		{
			"buffer":0,
			"byteLength":44940,
			"byteOffset":2778356,
			"target":34962
		},
		{
			"buffer":0,
			"byteLength":29960,
			"byteOffset":2823296,
			"target":34962
		},
		{
			"buffer":0,
			"byteLength":29960,
			"byteOffset":2853256,
			"target":34962
		},
		{
			"buffer":0,
			"byteLength":29960,
			"byteOffset":2883216,
			"target":34962
		},
		{
			"buffer":0,
			"byteLength":29960,
			"byteOffset":2913176,
			"target":34962
		},
		{
			"buffer":0,
			"byteLength":29960,
			"byteOffset":2943136,
			"target":34962
		},
		{
			"buffer":0,
			"byteLength":29960,
			"byteOffset":2973096,
			"target":34962
		},
		{
			"buffer":0,
			"byteLength":31452,
			"byteOffset":3003056,
			"target":34963
		},
		{
			"buffer":0,
			"byteLength":52932,
			"byteOffset":3034508,
			"target":34962
		},
		{
			"buffer":0,
			"byteLength":52932,
			"byteOffset":3087440,
			"target":34962
		},
		{
			"buffer":0,
			"byteLength":35288,
			"byteOffset":3140372,
			"target":34962
		},
		{
			"buffer":0,
			"byteLength":35288,
			"byteOffset":3175660,
			"target":34962
		},
		{
			"buffer":0,
			"byteLength":35288,
			"byteOffset":3210948,
			"target":34962
		},
		{
			"buffer":0,
			"byteLength":35288,
			"byteOffset":3246236,
			"target":34962
		},
		{
			"buffer":0,
			"byteLength":35288,
			"byteOffset":3281524,
			"target":34962
		},
		{
			"buffer":0,
			"byteLength":35288,
			"byteOffset":3316812,
			"target":34962
		},
		{
			"buffer":0,
			"byteLength":25158,
			"byteOffset":3352100,
			"target":34963
		},
		{
			"buffer":0,
			"byteLength":4128,
			"byteOffset":3377260,
			"target":34962
		},
		{
			"buffer":0,
			"byteLength":4128,
			"byteOffset":3381388,
			"target":34962
		},
		{
			"buffer":0,
			"byteLength":2752,
			"byteOffset":3385516,
			"target":34962
		},
		{
			"buffer":0,
			"byteLength":2752,
			"byteOffset":3388268,
			"target":34962
		},
		{
			"buffer":0,
			"byteLength":2752,
			"byteOffset":3391020,
			"target":34962
		},
		{
			"buffer":0,
			"byteLength":2752,
			"byteOffset":3393772,
			"target":34962
		},
		{
			"buffer":0,
			"byteLength":2752,
			"byteOffset":3396524,
			"target":34962
		},
		{
			"buffer":0,
			"byteLength":2752,
			"byteOffset":3399276,
			"target":34962
		},
		{
			"buffer":0,
			"byteLength":2616,
			"byteOffset":3402028,
			"target":34963
		},
		{
			"buffer":0,
			"byteLength":40368,
			"byteOffset":3404644,
			"target":34962
		},
		{
			"buffer":0,
			"byteLength":40368,
			"byteOffset":3445012,
			"target":34962
		},
		{
			"buffer":0,
			"byteLength":26912,
			"byteOffset":3485380,
			"target":34962
		},
		{
			"buffer":0,
			"byteLength":26912,
			"byteOffset":3512292,
			"target":34962
		},
		{
			"buffer":0,
			"byteLength":26912,
			"byteOffset":3539204,
			"target":34962
		},
		{
			"buffer":0,
			"byteLength":26912,
			"byteOffset":3566116,
			"target":34962
		},
		{
			"buffer":0,
			"byteLength":26912,
			"byteOffset":3593028,
			"target":34962
		},
		{
			"buffer":0,
			"byteLength":26912,
			"byteOffset":3619940,
			"target":34962
		},
		{
			"buffer":0,
			"byteLength":28884,
			"byteOffset":3646852,
			"target":34963
		},
		{
			"buffer":0,
			"byteLength":6072,
			"byteOffset":3675736,
			"target":34962
		},
		{
			"buffer":0,
			"byteLength":6072,
			"byteOffset":3681808,
			"target":34962
		},
		{
			"buffer":0,
			"byteLength":4048,
			"byteOffset":3687880,
			"target":34962
		},
		{
			"buffer":0,
			"byteLength":4048,
			"byteOffset":3691928,
			"target":34962
		},
		{
			"buffer":0,
			"byteLength":4048,
			"byteOffset":3695976,
			"target":34962
		},
		{
			"buffer":0,
			"byteLength":4048,
			"byteOffset":3700024,
			"target":34962
		},
		{
			"buffer":0,
			"byteLength":4048,
			"byteOffset":3704072,
			"target":34962
		},
		{
			"buffer":0,
			"byteLength":4048,
			"byteOffset":3708120,
			"target":34962
		},
		{
			"buffer":0,
			"byteLength":2976,
			"byteOffset":3712168,
			"target":34963
		},
		{
			"buffer":0,
			"byteLength":36996,
			"byteOffset":3715144,
			"target":34962
		},
		{
			"buffer":0,
			"byteLength":36996,
			"byteOffset":3752140,
			"target":34962
		},
		{
			"buffer":0,
			"byteLength":24664,
			"byteOffset":3789136,
			"target":34962
		},
		{
			"buffer":0,
			"byteLength":24664,
			"byteOffset":3813800,
			"target":34962
		},
		{
			"buffer":0,
			"byteLength":24664,
			"byteOffset":3838464,
			"target":34962
		},
		{
			"buffer":0,
			"byteLength":24664,
			"byteOffset":3863128,
			"target":34962
		},
		{
			"buffer":0,
			"byteLength":24664,
			"byteOffset":3887792,
			"target":34962
		},
		{
			"buffer":0,
			"byteLength":24664,
			"byteOffset":3912456,
			"target":34962
		},
		{
			"buffer":0,
			"byteLength":13608,
			"byteOffset":3937120,
			"target":34963
		},
		{
			"buffer":0,
			"byteLength":18576,
			"byteOffset":3950728,
			"target":34962
		},
		{
			"buffer":0,
			"byteLength":18576,
			"byteOffset":3969304,
			"target":34962
		},
		{
			"buffer":0,
			"byteLength":12384,
			"byteOffset":3987880,
			"target":34962
		},
		{
			"buffer":0,
			"byteLength":12384,
			"byteOffset":4000264,
			"target":34962
		},
		{
			"buffer":0,
			"byteLength":12384,
			"byteOffset":4012648,
			"target":34962
		},
		{
			"buffer":0,
			"byteLength":12384,
			"byteOffset":4025032,
			"target":34962
		},
		{
			"buffer":0,
			"byteLength":12384,
			"byteOffset":4037416,
			"target":34962
		},
		{
			"buffer":0,
			"byteLength":12384,
			"byteOffset":4049800,
			"target":34962
		},
		{
			"buffer":0,
			"byteLength":9786,
			"byteOffset":4062184,
			"target":34963
		},
		{
			"buffer":0,
			"byteLength":66096,
			"byteOffset":4071972,
			"target":34962
		},
		{
			"buffer":0,
			"byteLength":66096,
			"byteOffset":4138068,
			"target":34962
		},
		{
			"buffer":0,
			"byteLength":44064,
			"byteOffset":4204164,
			"target":34962
		},
		{
			"buffer":0,
			"byteLength":44064,
			"byteOffset":4248228,
			"target":34962
		},
		{
			"buffer":0,
			"byteLength":44064,
			"byteOffset":4292292,
			"target":34962
		},
		{
			"buffer":0,
			"byteLength":44064,
			"byteOffset":4336356,
			"target":34962
		},
		{
			"buffer":0,
			"byteLength":44064,
			"byteOffset":4380420,
			"target":34962
		},
		{
			"buffer":0,
			"byteLength":44064,
			"byteOffset":4424484,
			"target":34962
		},
		{
			"buffer":0,
			"byteLength":33738,
			"byteOffset":4468548,
			"target":34963
		},
		{
			"buffer":0,
			"byteLength":8400,
			"byteOffset":4502288,
			"target":34962
		},
		{
			"buffer":0,
			"byteLength":8400,
			"byteOffset":4510688,
			"target":34962
		},
		{
			"buffer":0,
			"byteLength":5600,
			"byteOffset":4519088,
			"target":34962
		},
		{
			"buffer":0,
			"byteLength":5600,
			"byteOffset":4524688,
			"target":34962
		},
		{
			"buffer":0,
			"byteLength":5600,
			"byteOffset":4530288,
			"target":34962
		},
		{
			"buffer":0,
			"byteLength":5600,
			"byteOffset":4535888,
			"target":34962
		},
		{
			"buffer":0,
			"byteLength":5600,
			"byteOffset":4541488,
			"target":34962
		},
		{
			"buffer":0,
			"byteLength":5600,
			"byteOffset":4547088,
			"target":34962
		},
		{
			"buffer":0,
			"byteLength":5838,
			"byteOffset":4552688,
			"target":34963
		},
		{
			"buffer":0,
			"byteLength":8892,
			"byteOffset":4558528,
			"target":34962
		},
		{
			"buffer":0,
			"byteLength":8892,
			"byteOffset":4567420,
			"target":34962
		},
		{
			"buffer":0,
			"byteLength":5928,
			"byteOffset":4576312,
			"target":34962
		},
		{
			"buffer":0,
			"byteLength":5928,
			"byteOffset":4582240,
			"target":34962
		},
		{
			"buffer":0,
			"byteLength":5928,
			"byteOffset":4588168,
			"target":34962
		},
		{
			"buffer":0,
			"byteLength":5928,
			"byteOffset":4594096,
			"target":34962
		},
		{
			"buffer":0,
			"byteLength":5928,
			"byteOffset":4600024,
			"target":34962
		},
		{
			"buffer":0,
			"byteLength":5928,
			"byteOffset":4605952,
			"target":34962
		},
		{
			"buffer":0,
			"byteLength":5322,
			"byteOffset":4611880,
			"target":34963
		},
		{
			"buffer":0,
			"byteLength":21696,
			"byteOffset":4617204,
			"target":34962
		},
		{
			"buffer":0,
			"byteLength":21696,
			"byteOffset":4638900,
			"target":34962
		},
		{
			"buffer":0,
			"byteLength":14464,
			"byteOffset":4660596,
			"target":34962
		},
		{
			"buffer":0,
			"byteLength":14464,
			"byteOffset":4675060,
			"target":34962
		},
		{
			"buffer":0,
			"byteLength":14464,
			"byteOffset":4689524,
			"target":34962
		},
		{
			"buffer":0,
			"byteLength":14464,
			"byteOffset":4703988,
			"target":34962
		},
		{
			"buffer":0,
			"byteLength":14464,
			"byteOffset":4718452,
			"target":34962
		},
		{
			"buffer":0,
			"byteLength":14464,
			"byteOffset":4732916,
			"target":34962
		},
		{
			"buffer":0,
			"byteLength":10872,
			"byteOffset":4747380,
			"target":34963
		},
		{
			"buffer":0,
			"byteLength":99324,
			"byteOffset":4758252,
			"target":34962
		},
		{
			"buffer":0,
			"byteLength":99324,
			"byteOffset":4857576,
			"target":34962
		},
		{
			"buffer":0,
			"byteLength":66216,
			"byteOffset":4956900,
			"target":34962
		},
		{
			"buffer":0,
			"byteLength":66216,
			"byteOffset":5023116,
			"target":34962
		},
		{
			"buffer":0,
			"byteLength":66216,
			"byteOffset":5089332,
			"target":34962
		},
		{
			"buffer":0,
			"byteLength":66216,
			"byteOffset":5155548,
			"target":34962
		},
		{
			"buffer":0,
			"byteLength":66216,
			"byteOffset":5221764,
			"target":34962
		},
		{
			"buffer":0,
			"byteLength":66216,
			"byteOffset":5287980,
			"target":34962
		},
		{
			"buffer":0,
			"byteLength":67218,
			"byteOffset":5354196,
			"target":34963
		},
		{
			"buffer":0,
			"byteLength":11028,
			"byteOffset":5421416,
			"target":34962
		},
		{
			"buffer":0,
			"byteLength":11028,
			"byteOffset":5432444,
			"target":34962
		},
		{
			"buffer":0,
			"byteLength":7352,
			"byteOffset":5443472,
			"target":34962
		},
		{
			"buffer":0,
			"byteLength":7352,
			"byteOffset":5450824,
			"target":34962
		},
		{
			"buffer":0,
			"byteLength":7352,
			"byteOffset":5458176,
			"target":34962
		},
		{
			"buffer":0,
			"byteLength":7352,
			"byteOffset":5465528,
			"target":34962
		},
		{
			"buffer":0,
			"byteLength":7352,
			"byteOffset":5472880,
			"target":34962
		},
		{
			"buffer":0,
			"byteLength":7352,
			"byteOffset":5480232,
			"target":34962
		},
		{
			"buffer":0,
			"byteLength":6246,
			"byteOffset":5487584,
			"target":34963
		},
		{
			"buffer":0,
			"byteLength":25440,
			"byteOffset":5493832,
			"target":34962
		},
		{
			"buffer":0,
			"byteLength":25440,
			"byteOffset":5519272,
			"target":34962
		},
		{
			"buffer":0,
			"byteLength":16960,
			"byteOffset":5544712,
			"target":34962
		},
		{
			"buffer":0,
			"byteLength":16960,
			"byteOffset":5561672,
			"target":34962
		},
		{
			"buffer":0,
			"byteLength":16960,
			"byteOffset":5578632,
			"target":34962
		},
		{
			"buffer":0,
			"byteLength":16960,
			"byteOffset":5595592,
			"target":34962
		},
		{
			"buffer":0,
			"byteLength":16960,
			"byteOffset":5612552,
			"target":34962
		},
		{
			"buffer":0,
			"byteLength":16960,
			"byteOffset":5629512,
			"target":34962
		},
		{
			"buffer":0,
			"byteLength":7572,
			"byteOffset":5646472,
			"target":34963
		},
		{
			"buffer":0,
			"byteLength":10596,
			"byteOffset":5654044,
			"target":34962
		},
		{
			"buffer":0,
			"byteLength":10596,
			"byteOffset":5664640,
			"target":34962
		},
		{
			"buffer":0,
			"byteLength":7064,
			"byteOffset":5675236,
			"target":34962
		},
		{
			"buffer":0,
			"byteLength":7064,
			"byteOffset":5682300,
			"target":34962
		},
		{
			"buffer":0,
			"byteLength":7064,
			"byteOffset":5689364,
			"target":34962
		},
		{
			"buffer":0,
			"byteLength":7064,
			"byteOffset":5696428,
			"target":34962
		},
		{
			"buffer":0,
			"byteLength":7064,
			"byteOffset":5703492,
			"target":34962
		},
		{
			"buffer":0,
			"byteLength":7064,
			"byteOffset":5710556,
			"target":34962
		},
		{
			"buffer":0,
			"byteLength":6318,
			"byteOffset":5717620,
			"target":34963
		},
		{
			"buffer":0,
			"byteLength":528,
			"byteOffset":5723940,
			"target":34962
		},
		{
			"buffer":0,
			"byteLength":528,
			"byteOffset":5724468,
			"target":34962
		},
		{
			"buffer":0,
			"byteLength":352,
			"byteOffset":5724996,
			"target":34962
		},
		{
			"buffer":0,
			"byteLength":352,
			"byteOffset":5725348,
			"target":34962
		},
		{
			"buffer":0,
			"byteLength":352,
			"byteOffset":5725700,
			"target":34962
		},
		{
			"buffer":0,
			"byteLength":352,
			"byteOffset":5726052,
			"target":34962
		},
		{
			"buffer":0,
			"byteLength":352,
			"byteOffset":5726404,
			"target":34962
		},
		{
			"buffer":0,
			"byteLength":352,
			"byteOffset":5726756,
			"target":34962
		},
		{
			"buffer":0,
			"byteLength":168,
			"byteOffset":5727108,
			"target":34963
		},
		{
			"buffer":0,
			"byteLength":2976,
			"byteOffset":5727276,
			"target":34962
		},
		{
			"buffer":0,
			"byteLength":2976,
			"byteOffset":5730252,
			"target":34962
		},
		{
			"buffer":0,
			"byteLength":1984,
			"byteOffset":5733228,
			"target":34962
		},
		{
			"buffer":0,
			"byteLength":1984,
			"byteOffset":5735212,
			"target":34962
		},
		{
			"buffer":0,
			"byteLength":1984,
			"byteOffset":5737196,
			"target":34962
		},
		{
			"buffer":0,
			"byteLength":1984,
			"byteOffset":5739180,
			"target":34962
		},
		{
			"buffer":0,
			"byteLength":1984,
			"byteOffset":5741164,
			"target":34962
		},
		{
			"buffer":0,
			"byteLength":1984,
			"byteOffset":5743148,
			"target":34962
		},
		{
			"buffer":0,
			"byteLength":1416,
			"byteOffset":5745132,
			"target":34963
		},
		{
			"buffer":0,
			"byteLength":4356,
			"byteOffset":5746548,
			"target":34962
		},
		{
			"buffer":0,
			"byteLength":4356,
			"byteOffset":5750904,
			"target":34962
		},
		{
			"buffer":0,
			"byteLength":2904,
			"byteOffset":5755260,
			"target":34962
		},
		{
			"buffer":0,
			"byteLength":2904,
			"byteOffset":5758164,
			"target":34962
		},
		{
			"buffer":0,
			"byteLength":2904,
			"byteOffset":5761068,
			"target":34962
		},
		{
			"buffer":0,
			"byteLength":2904,
			"byteOffset":5763972,
			"target":34962
		},
		{
			"buffer":0,
			"byteLength":2904,
			"byteOffset":5766876,
			"target":34962
		},
		{
			"buffer":0,
			"byteLength":2904,
			"byteOffset":5769780,
			"target":34962
		},
		{
			"buffer":0,
			"byteLength":3072,
			"byteOffset":5772684,
			"target":34963
		},
		{
			"buffer":0,
			"byteLength":22152,
			"byteOffset":5775756,
			"target":34962
		},
		{
			"buffer":0,
			"byteLength":22152,
			"byteOffset":5797908,
			"target":34962
		},
		{
			"buffer":0,
			"byteLength":14768,
			"byteOffset":5820060,
			"target":34962
		},
		{
			"buffer":0,
			"byteLength":14768,
			"byteOffset":5834828,
			"target":34962
		},
		{
			"buffer":0,
			"byteLength":14768,
			"byteOffset":5849596,
			"target":34962
		},
		{
			"buffer":0,
			"byteLength":14768,
			"byteOffset":5864364,
			"target":34962
		},
		{
			"buffer":0,
			"byteLength":14768,
			"byteOffset":5879132,
			"target":34962
		},
		{
			"buffer":0,
			"byteLength":14768,
			"byteOffset":5893900,
			"target":34962
		},
		{
			"buffer":0,
			"byteLength":11088,
			"byteOffset":5908668,
			"target":34963
		},
		{
			"buffer":0,
			"byteLength":12852,
			"byteOffset":5919756,
			"target":34962
		},
		{
			"buffer":0,
			"byteLength":12852,
			"byteOffset":5932608,
			"target":34962
		},
		{
			"buffer":0,
			"byteLength":8568,
			"byteOffset":5945460,
			"target":34962
		},
		{
			"buffer":0,
			"byteLength":8568,
			"byteOffset":5954028,
			"target":34962
		},
		{
			"buffer":0,
			"byteLength":8568,
			"byteOffset":5962596,
			"target":34962
		},
		{
			"buffer":0,
			"byteLength":8568,
			"byteOffset":5971164,
			"target":34962
		},
		{
			"buffer":0,
			"byteLength":8568,
			"byteOffset":5979732,
			"target":34962
		},
		{
			"buffer":0,
			"byteLength":8568,
			"byteOffset":5988300,
			"target":34962
		},
		{
			"buffer":0,
			"byteLength":7668,
			"byteOffset":5996868,
			"target":34963
		},
		{
			"buffer":0,
			"byteLength":4896,
			"byteOffset":6004536,
			"target":34962
		},
		{
			"buffer":0,
			"byteLength":4896,
			"byteOffset":6009432,
			"target":34962
		},
		{
			"buffer":0,
			"byteLength":3264,
			"byteOffset":6014328,
			"target":34962
		},
		{
			"buffer":0,
			"byteLength":3264,
			"byteOffset":6017592,
			"target":34962
		},
		{
			"buffer":0,
			"byteLength":3264,
			"byteOffset":6020856,
			"target":34962
		},
		{
			"buffer":0,
			"byteLength":3264,
			"byteOffset":6024120,
			"target":34962
		},
		{
			"buffer":0,
			"byteLength":3264,
			"byteOffset":6027384,
			"target":34962
		},
		{
			"buffer":0,
			"byteLength":3264,
			"byteOffset":6030648,
			"target":34962
		},
		{
			"buffer":0,
			"byteLength":2670,
			"byteOffset":6033912,
			"target":34963
		},
		{
			"buffer":0,
			"byteLength":35808,
			"byteOffset":6036584,
			"target":34962
		},
		{
			"buffer":0,
			"byteLength":35808,
			"byteOffset":6072392,
			"target":34962
		},
		{
			"buffer":0,
			"byteLength":23872,
			"byteOffset":6108200,
			"target":34962
		},
		{
			"buffer":0,
			"byteLength":23872,
			"byteOffset":6132072,
			"target":34962
		},
		{
			"buffer":0,
			"byteLength":23872,
			"byteOffset":6155944,
			"target":34962
		},
		{
			"buffer":0,
			"byteLength":23872,
			"byteOffset":6179816,
			"target":34962
		},
		{
			"buffer":0,
			"byteLength":23872,
			"byteOffset":6203688,
			"target":34962
		},
		{
			"buffer":0,
			"byteLength":23872,
			"byteOffset":6227560,
			"target":34962
		},
		{
			"buffer":0,
			"byteLength":24234,
			"byteOffset":6251432,
			"target":34963
		},
		{
			"buffer":0,
			"byteLength":15528,
			"byteOffset":6275668,
			"target":34962
		},
		{
			"buffer":0,
			"byteLength":15528,
			"byteOffset":6291196,
			"target":34962
		},
		{
			"buffer":0,
			"byteLength":10352,
			"byteOffset":6306724,
			"target":34962
		},
		{
			"buffer":0,
			"byteLength":10352,
			"byteOffset":6317076,
			"target":34962
		},
		{
			"buffer":0,
			"byteLength":10352,
			"byteOffset":6327428,
			"target":34962
		},
		{
			"buffer":0,
			"byteLength":10352,
			"byteOffset":6337780,
			"target":34962
		},
		{
			"buffer":0,
			"byteLength":10352,
			"byteOffset":6348132,
			"target":34962
		},
		{
			"buffer":0,
			"byteLength":10352,
			"byteOffset":6358484,
			"target":34962
		},
		{
			"buffer":0,
			"byteLength":8856,
			"byteOffset":6368836,
			"target":34963
		},
		{
			"buffer":0,
			"byteLength":42996,
			"byteOffset":6377692,
			"target":34962
		},
		{
			"buffer":0,
			"byteLength":42996,
			"byteOffset":6420688,
			"target":34962
		},
		{
			"buffer":0,
			"byteLength":28664,
			"byteOffset":6463684,
			"target":34962
		},
		{
			"buffer":0,
			"byteLength":28664,
			"byteOffset":6492348,
			"target":34962
		},
		{
			"buffer":0,
			"byteLength":28664,
			"byteOffset":6521012,
			"target":34962
		},
		{
			"buffer":0,
			"byteLength":28664,
			"byteOffset":6549676,
			"target":34962
		},
		{
			"buffer":0,
			"byteLength":28664,
			"byteOffset":6578340,
			"target":34962
		},
		{
			"buffer":0,
			"byteLength":28664,
			"byteOffset":6607004,
			"target":34962
		},
		{
			"buffer":0,
			"byteLength":26226,
			"byteOffset":6635668,
			"target":34963
		},
		{
			"buffer":0,
			"byteLength":6804,
			"byteOffset":6661896,
			"target":34962
		},
		{
			"buffer":0,
			"byteLength":6804,
			"byteOffset":6668700,
			"target":34962
		},
		{
			"buffer":0,
			"byteLength":4536,
			"byteOffset":6675504,
			"target":34962
		},
		{
			"buffer":0,
			"byteLength":4536,
			"byteOffset":6680040,
			"target":34962
		},
		{
			"buffer":0,
			"byteLength":4536,
			"byteOffset":6684576,
			"target":34962
		},
		{
			"buffer":0,
			"byteLength":4536,
			"byteOffset":6689112,
			"target":34962
		},
		{
			"buffer":0,
			"byteLength":4536,
			"byteOffset":6693648,
			"target":34962
		},
		{
			"buffer":0,
			"byteLength":4536,
			"byteOffset":6698184,
			"target":34962
		},
		{
			"buffer":0,
			"byteLength":3456,
			"byteOffset":6702720,
			"target":34963
		},
		{
			"buffer":0,
			"byteLength":4908,
			"byteOffset":6706176,
			"target":34962
		},
		{
			"buffer":0,
			"byteLength":4908,
			"byteOffset":6711084,
			"target":34962
		},
		{
			"buffer":0,
			"byteLength":3272,
			"byteOffset":6715992,
			"target":34962
		},
		{
			"buffer":0,
			"byteLength":3272,
			"byteOffset":6719264,
			"target":34962
		},
		{
			"buffer":0,
			"byteLength":3272,
			"byteOffset":6722536,
			"target":34962
		},
		{
			"buffer":0,
			"byteLength":3272,
			"byteOffset":6725808,
			"target":34962
		},
		{
			"buffer":0,
			"byteLength":3272,
			"byteOffset":6729080,
			"target":34962
		},
		{
			"buffer":0,
			"byteLength":3272,
			"byteOffset":6732352,
			"target":34962
		},
		{
			"buffer":0,
			"byteLength":2664,
			"byteOffset":6735624,
			"target":34963
		}
	],
	"samplers":[
		{
			"magFilter":9729,
			"minFilter":9987
		}
	],
	"buffers":[
		{
			"byteLength":6738288,
			"uri":"OSMO%20Mobile%206.bin"
		}
	]
}
